<svg xmlns="http://www.w3.org/2000/svg" viewBox="0 0 587 88">
  <g fill="none" fill-rule="evenodd">
    <g fill="#2C2C2C" fill-rule="nonzero">
      <clipPath id="ink1">
        <path d="M20.7812,66.4128 C20.7962,66.2928 20.8112,66.1728 20.8262,66.0518 C20.8102,66.1728 20.7942,66.2928 20.7812,66.4128 M16.8292,81.1308 C16.8632,81.1278 16.8962,81.1228 16.9292,81.1158 C16.8952,81.1198 16.8612,81.1248 16.8262,81.1288 C16.8272,81.1298 16.8282,81.1298 16.8292,81.1308 M16.6772,81.1328 C16.6792,81.1318 16.6812,81.1318 16.6832,81.1308 C16.6242,81.1228 16.5642,81.1148 16.5042,81.1078 C16.5622,81.1208 16.6202,81.1298 16.6772,81.1328 M16.5042,84.2408 C16.2812,84.2328 16.0662,84.1938 15.8592,84.1118 C15.5862,84.0258 15.3082,83.8778 15.0582,83.7328 C14.6052,83.4748 14.2462,83.0768 13.9102,82.6828 C13.5232,82.2258 13.1992,81.7258 12.8832,81.2178 C12.4922,80.5928 12.1362,79.9438 11.7972,79.2918 C11.4222,78.5688 11.0512,77.8578 10.7222,77.1158 C10.3752,76.3308 10.0232,75.5538 9.7222,74.7488 C9.4532,74.0178 9.1602,73.2958 8.9142,72.5578 L7.9652,69.7568 C7.4652,68.2718 7.0702,66.7488 6.6332,65.2448 C6.4802,64.7178 6.3552,64.1828 6.2152,63.6508 C5.9332,62.5648 5.6482,61.4788 5.3672,60.3928 C5.1852,59.6938 5.0272,58.9908 4.8752,58.2858 C4.7232,58.4648 4.4872,58.5808 4.2652,58.5808 C3.8122,58.5808 3.5472,58.2328 3.5002,57.8148 C3.1092,54.2328 2.7032,50.6548 2.3322,47.0688 C2.1642,45.4438 1.9652,43.8188 1.8322,42.1898 C1.6832,40.3698 1.5352,38.5538 1.3862,36.7368 C1.2612,35.2448 1.1762,33.7448 1.0862,32.2528 C1.0352,31.3618 1.0082,30.4718 0.9692,29.5808 C0.9452,28.9908 0.9292,28.4128 0.9452,27.8228 C0.9802,26.1668 1.0152,24.5178 1.1092,22.8658 C1.2072,21.1278 1.3122,19.3928 1.4222,17.6588 C1.5662,15.3658 1.8012,13.0768 2.0312,10.7878 C2.1522,9.5458 2.3082,8.3108 2.4762,7.0728 C2.5472,6.5378 2.6252,5.9988 2.7072,5.4638 C2.7612,5.1278 2.8122,4.7918 2.8672,4.4518 C2.9222,4.1038 2.9802,3.7528 3.0432,3.4048 C3.0582,3.2758 3.0972,3.1548 3.1522,3.0418 C3.2582,2.7758 3.3982,2.5998 3.5742,2.3818 C4.0352,1.8188 5.0312,2.0148 5.3552,2.6118 C5.4492,2.7838 5.5232,2.9638 5.5972,3.1428 C5.6092,3.2448 5.6252,3.3498 5.6362,3.4518 C5.6682,3.6278 5.6762,3.8078 5.6642,3.9828 C5.6602,4.2798 5.6132,4.5808 5.5822,4.8738 C5.5312,5.3498 5.4802,5.8268 5.4262,6.3078 C5.3592,6.9598 5.2852,7.6118 5.2182,8.2648 C5.1092,9.2998 5.0002,10.3348 4.8942,11.3698 C4.8362,11.9358 4.7542,12.5028 4.7192,13.0688 C4.5972,15.0178 4.4692,16.9678 4.3472,18.9128 C4.2692,20.1198 4.2652,21.3188 4.2542,22.5258 C4.2302,24.4868 4.2032,26.4438 4.1832,28.4008 C4.1792,28.7218 4.2112,29.0418 4.2302,29.3618 C4.2932,30.3468 4.3552,31.3268 4.4142,32.3108 C4.5312,34.2178 4.6522,36.1278 4.7692,38.0338 C4.7892,38.3778 4.8362,38.7138 4.8712,39.0578 C4.9882,40.1078 5.1012,41.1628 5.2182,42.2178 C5.3602,43.5368 5.5062,44.8588 5.6472,46.1788 C5.9162,47.8888 6.1982,49.5948 6.4682,51.2998 C6.6912,52.6828 7.0232,54.0458 7.3242,55.4128 C7.6212,56.7718 7.8982,58.1358 8.2612,59.4828 C8.5512,60.5578 8.8432,61.6358 9.1332,62.7138 C9.2852,63.2718 9.4222,63.8348 9.5862,64.3898 C10.0822,66.0458 10.5472,67.7138 11.1092,69.3508 C11.3982,70.1858 11.6682,71.0378 11.9802,71.8658 C12.2912,72.6938 12.6052,73.5178 12.9122,74.3468 C13.3222,75.2718 13.7312,76.1958 14.1992,77.0968 C14.7962,78.2518 15.3992,79.4278 16.1512,80.4888 C16.3082,80.6778 16.4712,80.8568 16.6482,81.0248 C16.6802,81.0458 16.7122,81.0638 16.7442,81.0828 C16.7882,81.0388 16.8312,80.9938 16.8732,80.9468 C17.3042,80.3048 17.6182,79.5768 17.9302,78.8668 C19.6082,74.7708 20.1312,70.3368 20.8332,65.9998 C21.1712,63.2738 21.5392,60.5528 21.9062,57.8338 C22.2872,54.8358 22.6942,51.8408 23.0312,48.8388 C23.4332,45.3038 23.8282,41.7678 24.2222,38.2328 C24.5312,35.4518 24.8082,32.6708 25.1132,29.8898 C25.5002,26.3388 25.8862,22.7878 26.2812,19.2368 C26.9142,13.5068 27.2892,7.7488 28.0862,2.0378 C28.1872,1.6788 28.3672,1.3698 28.6292,1.1078 C29.0232,0.7138 29.5622,0.4868 30.1212,0.4868 C30.6792,0.4868 31.2192,0.7138 31.6132,1.1078 C31.9722,1.4678 32.2892,2.0728 32.2342,2.5998 C31.9262,5.4908 31.5512,8.3698 31.1952,11.2568 C30.8752,13.8658 30.5912,16.4858 30.2362,19.0938 C29.9842,21.0668 29.7322,23.0448 29.4612,25.0178 C29.4842,24.8468 29.5082,24.6788 29.5312,24.5068 C28.6952,31.0338 27.9022,37.5608 27.0742,44.0888 C26.2692,50.4288 25.3752,56.7608 24.4962,63.0928 C24.3042,64.4558 24.1442,65.8228 23.9182,67.1788 L22.9922,72.6398 C22.8512,73.4558 22.6482,74.2648 22.4492,75.0688 C22.1762,76.1978 21.8322,77.3148 21.4612,78.4168 C21.1212,79.4248 20.6792,80.3898 20.2302,81.3538 C20.0472,81.7528 19.8472,82.1398 19.6052,82.5108 C19.2612,83.0418 18.8442,83.4478 18.3282,83.8078 C17.8712,84.1318 17.2692,84.2178 16.7302,84.2678 C16.6562,84.2568 16.5782,84.2488 16.5042,84.2408" transform="matrix(1 0 0 -1 0 84.7546)"/>
      </clipPath>
      <clipPath id="ink2">
        <path d="M42.9067,23.7084469 C42.8387,23.6754469 42.7697,23.6464469 42.6977,23.6194469 C42.7677,23.6484469 42.8367,23.6794469 42.9067,23.7084469 M42.8967,23.9364469 C42.9857,23.9244469 43.0757,23.9114469 43.1647,23.8984469 C43.1647,23.8984469 43.1637,23.8974469 43.1637,23.8964469 C43.0747,23.9064469 42.9857,23.9204469 42.8967,23.9364469 M69.0057,29.9924469 C68.9647,29.9844469 68.9227,29.9794469 68.8807,29.9754469 C68.9227,29.9804469 68.9647,29.9864469 69.0057,29.9924469 M69.5127,29.9924469 C69.5547,29.9864469 69.5967,29.9804469 69.6387,29.9754469 C69.5957,29.9794469 69.5547,29.9854469 69.5127,29.9924469 M81.5607,33.9864469 C81.5447,33.9514469 81.5297,33.9154469 81.5137,33.8804469 C81.5297,33.9164469 81.5447,33.9514469 81.5607,33.9864469 M82.2527,37.4924469 C82.3067,37.4724469 82.3597,37.4494469 82.4117,37.4244469 C82.3597,37.4474469 82.3057,37.4704469 82.2527,37.4924469 M82.0667,37.5544469 C82.0707,37.5534469 82.0737,37.5514469 82.0767,37.5514469 C82.0857,37.5364469 82.0937,37.5214469 82.1017,37.5074469 C82.1167,37.1044469 82.1017,36.7074469 82.0657,36.3064469 C81.9327,35.4344469 81.7517,34.5894469 81.4547,33.7504469 C81.3237,33.4704469 81.1787,33.2044469 81.0057,32.9464469 C80.9057,32.8304469 80.8007,32.7204469 80.6857,32.6124469 C80.6627,32.5984469 80.6387,32.5844469 80.6147,32.5704469 C80.5737,32.5584469 80.5317,32.5464469 80.4887,32.5364469 C80.3017,32.5244469 80.1197,32.5264469 79.9357,32.5404469 C79.6547,32.6074469 79.3857,32.6944469 79.1157,32.7984469 C78.9157,32.8894469 78.7187,32.9834469 78.5227,33.0814469 C78.5427,33.1394469 78.5637,33.1964469 78.5857,33.2544469 C79.0187,34.1744469 79.5437,35.0364469 80.1457,35.8574469 C80.5237,36.3104469 80.9107,36.7434469 81.3497,37.1364469 C81.5737,37.2874469 81.8007,37.4234469 82.0417,37.5464469 C82.0507,37.5494469 82.0587,37.5514469 82.0667,37.5544469 M82.4477,37.6194469 C82.3697,37.6094469 82.2907,37.5994469 82.2117,37.5884469 C82.2897,37.6044469 82.3677,37.6134469 82.4477,37.6194469 M81.9867,37.7994469 C82.0237,37.7304469 82.0537,37.6584469 82.0797,37.5864469 C82.0777,37.5874469 82.0767,37.5884469 82.0747,37.5894469 C82.0457,37.6594469 82.0157,37.7294469 81.9867,37.7994469 M81.8537,37.8654469 C81.8997,37.8124469 81.9437,37.7554469 81.9847,37.6964469 C81.9407,37.7544469 81.8967,37.8114469 81.8537,37.8654469 M82.0797,80.5764469 C81.7557,80.2604469 81.4897,79.9864469 81.2247,79.6114469 C80.9667,79.2484469 80.8257,78.8384469 80.6617,78.4324469 C80.5327,78.1194469 80.4977,77.7644469 80.4477,77.4324469 C80.3767,76.9634469 80.3257,76.4984469 80.2867,76.0254469 C80.1427,74.2254469 80.1427,72.4434469 80.2207,70.6394469 C80.3297,68.0454469 80.6227,65.4394469 81.0137,62.8734469 C81.2517,61.2954469 81.4937,59.7134469 81.7327,58.1354469 C81.8497,57.3614469 81.9547,56.5964469 82.1227,55.8384469 C82.4667,54.2754469 82.8107,52.7214469 83.1547,51.1624469 C83.3257,50.3854469 83.4897,49.6154469 83.6937,48.8504469 C84.3297,46.4944469 84.9317,44.1274469 85.6467,41.7954469 C86.1427,40.1624469 86.6037,38.5184469 87.1777,36.9124469 C87.2217,36.7884469 87.2667,36.6634469 87.3117,36.5384469 C87.1167,35.8104469 86.8857,35.0914469 86.6147,34.3844469 C86.2287,33.5334469 85.7857,32.7194469 85.2477,31.9534469 C84.9337,31.5884469 84.5977,31.2564469 84.2327,30.9454469 C83.8437,30.6804469 83.4437,30.4454469 83.0217,30.2364469 C82.6167,30.0884469 82.2087,29.9694469 81.7837,29.8794469 C81.4327,29.8524469 81.0857,29.8484469 80.7307,29.8694469 C80.4647,29.9224469 80.2057,29.9884469 79.9487,30.0704469 C80.1007,30.0564469 80.2537,30.0474469 80.4077,30.0454469 C82.8617,30.0144469 84.0647,32.6314469 84.6937,34.6154469 C84.8847,35.2094469 85.0177,35.8184469 85.1187,36.4324469 C85.2247,37.0574469 85.3577,37.7834469 85.1817,38.4084469 C84.9827,39.1274469 84.6507,39.7834469 84.0567,40.2484469 C83.7247,40.5104469 83.4317,40.6894469 83.0327,40.8344469 C82.7167,40.9474469 82.3227,41.0684469 81.9827,41.0534469 C81.6117,41.0374469 81.2557,40.9864469 80.8967,40.9124469 C80.5327,40.8344469 80.1857,40.6394469 79.8457,40.4944469 C79.1817,40.2094469 78.6147,39.7094469 78.0797,39.2364469 C77.4197,38.6544469 76.8417,37.9984469 76.2907,37.3114469 C75.8337,36.7364469 75.3997,36.1544469 75.0097,35.5374469 C74.9687,35.4734469 74.9287,35.4064469 74.8897,35.3404469 C74.1077,35.9104469 72.9297,35.9924469 72.2207,35.2364469 C71.7437,34.7254469 71.4277,34.1434469 71.1307,33.5144469 C70.6317,32.4594469 70.2067,31.3744469 69.5427,30.4124469 C69.4357,30.2954469 69.3267,30.1864469 69.2117,30.0804469 C69.0417,30.1734469 68.8797,30.2744469 68.7187,30.3854469 C67.9797,31.0364469 67.3447,31.7764469 66.7187,32.5344469 C65.4767,34.1644469 64.2807,35.8594469 62.8807,37.3544469 C61.7867,38.5184469 60.6387,39.6004469 59.3687,40.5764469 C58.7827,41.0294469 58.1857,41.3304469 57.4897,41.5844469 C56.7327,41.8654469 55.8297,41.7174469 55.0727,41.5374469 C54.2327,41.3384469 53.5137,40.7994469 52.8647,40.2644469 C52.3187,39.8144469 51.9077,39.1864469 51.4977,38.6194469 C50.8537,37.7294469 50.3377,36.7444469 49.8147,35.7834469 C49.3297,34.8964469 48.9157,33.9714469 48.4977,33.0534469 C48.0177,32.0024469 47.5367,30.9514469 47.0487,29.9004469 C46.3437,28.3874469 45.5957,26.8464469 44.6097,25.4944469 C44.1607,24.9364469 43.7037,24.4064469 43.1847,23.9174469 C43.0317,23.9534469 42.8817,23.9954469 42.7317,24.0444469 C42.6917,24.0664469 42.6517,24.0904469 42.6127,24.1154469 C42.5287,24.1904469 42.4497,24.2684469 42.3727,24.3504469 C42.0027,24.9374469 41.6677,25.5414469 41.3817,26.1714469 C40.4777,28.4724469 40.0327,30.8804469 39.6507,33.3124469 C39.4047,35.6234469 39.3007,37.9344469 39.1467,40.2524469 C39.0757,41.3304469 38.9827,42.4044469 38.8337,43.4754469 C38.7867,43.8074469 38.7207,44.1394469 38.6657,44.4674469 C38.5997,44.8774469 38.3887,45.2564469 38.2007,45.6194469 C38.0057,46.0064469 37.5097,46.5024469 37.1427,46.7174469 C36.5797,47.0414469 36.0407,47.2254469 35.3807,47.1744469 C34.2397,47.0884469 33.1817,46.5494469 32.1507,46.0844469 C31.7937,45.9254469 31.4357,45.7704469 31.0767,45.6144469 C27.7077,44.3314469 24.2397,43.3344469 20.7827,42.3224469 C19.0327,41.8074469 17.2827,41.2954469 15.5297,40.8074469 C13.5297,40.2484469 11.4867,39.8184469 9.4667,39.3464469 C7.8187,38.9594469 6.8617,37.1074469 7.2987,35.5254469 C7.5097,34.7524469 8.0297,34.0764469 8.7247,33.6704469 C9.4627,33.2404469 10.2907,33.1664469 11.1147,33.3574469 C13.4007,33.8934469 15.6977,34.4044469 17.9587,35.0374469 C20.1387,35.6464469 22.3027,36.3074469 24.4707,36.9634469 C26.4507,37.5614469 28.4077,38.2174469 30.3417,38.9514469 C31.4437,39.3734469 32.5647,39.8034469 33.6037,40.3574469 C33.9357,40.5354469 34.2627,40.7194469 34.5857,40.9104469 L34.6147,40.7374469 C34.8897,38.4414469 35.0857,36.1294469 35.4047,33.8384469 C35.7327,31.4674469 36.1577,29.1194469 36.7717,26.8074469 C36.8967,26.3384469 37.0647,25.8774469 37.2127,25.4124469 C37.4397,24.7094469 37.7477,24.0254469 38.0567,23.3544469 C38.4357,22.5214469 38.9077,21.7174469 39.5447,21.0534469 C40.0837,20.4984469 40.8377,20.0454469 41.5727,19.8074469 C42.2827,19.5724469 43.0727,19.3814469 43.8257,19.4594469 C44.3027,19.5104469 44.8457,19.6234469 45.2597,19.8934469 C45.6227,20.1234469 45.9547,20.3894469 46.2907,20.6544469 C46.9547,21.1824469 47.4827,21.8464469 48.0217,22.4944469 C48.8687,23.5144469 49.5647,24.6114469 50.1617,25.7954469 C50.4587,26.3814469 50.7557,26.9714469 51.0567,27.5574469 C51.5797,28.6004469 52.0487,29.6704469 52.5327,30.7324469 C53.4627,32.7794469 54.4257,34.8544469 55.7017,36.7144469 C55.8397,36.8774469 55.9827,37.0334469 56.1357,37.1844469 C56.2487,37.2594469 56.3647,37.3284469 56.4867,37.3944469 C56.4947,37.3964469 56.5047,37.3984469 56.5137,37.4014469 C56.5307,37.3964469 56.5477,37.3914469 56.5647,37.3864469 C56.9087,37.1914469 57.2287,36.9654469 57.5447,36.7314469 C58.8147,35.7064469 60.0317,34.5854469 61.0757,33.3304469 C62.0527,32.1584469 62.9587,30.9324469 63.9477,29.7714469 C64.5367,29.0724469 65.1387,28.3894469 65.8227,27.7794469 C66.5647,27.1194469 67.4077,26.5844469 68.3767,26.3384469 C69.4707,26.0614469 70.5367,26.4124469 71.3957,27.0924469 C72.6387,28.0684469 73.2167,29.6044469 73.7007,31.0574469 C73.7057,31.0734469 73.7117,31.0894469 73.7167,31.1054469 C73.7977,30.1844469 74.0997,29.2804469 74.5837,28.4984469 C75.4627,27.0764469 76.9277,26.0254469 78.4747,25.4514469 C80.1467,24.8264469 81.9117,24.8344469 83.6347,25.2254469 C84.4547,25.4124469 85.2517,25.7834469 85.9937,26.1664469 C86.7167,26.5374469 87.3687,27.0724469 87.9897,27.5924469 C88.6077,28.1074469 89.0837,28.7684469 89.5687,29.4044469 C89.6707,29.5414469 89.7697,29.6814469 89.8637,29.8244469 C90.4097,28.5104469 90.9717,27.2034469 91.5487,25.9004469 C91.8767,25.1544469 92.2517,24.4284469 92.6037,23.6974469 C93.0957,22.6784469 93.7167,21.7254469 94.3377,20.7794469 C94.7637,20.1274469 95.3257,19.6394469 96.0917,19.4284469 C96.8497,19.2174469 97.6777,19.3264469 98.3577,19.7254469 C99.7477,20.5374469 100.2047,22.3544469 99.4077,23.7444469 C98.4667,25.3964469 97.6937,27.1234469 96.9117,28.8544469 C97.0137,28.6114469 97.1187,28.3654469 97.2207,28.1234469 C96.7817,29.1634469 96.3327,30.1994469 95.8857,31.2344469 C95.4467,32.3424469 94.9887,33.4404469 94.5407,34.5454469 C94.0997,35.6354469 93.7167,36.7484469 93.3027,37.8504469 C93.1567,38.2414469 93.0147,38.6344469 92.8757,39.0274469 C92.9807,39.8674469 93.0587,40.7114469 93.1187,41.5534469 C93.3727,45.0454469 93.2717,48.6004469 92.8887,52.0764469 C92.6547,54.2324469 92.2827,56.3614469 91.8457,58.4824469 C91.5917,59.7134469 91.3687,60.9514469 91.0837,62.1704469 C89.9827,66.9004469 88.9317,71.6464469 87.6507,76.3304469 C87.5447,76.7214469 87.4397,77.1074469 87.3377,77.4984469 C87.0957,78.4244469 86.6937,79.2484469 86.1777,80.0454469 C85.8027,80.6274469 85.2947,81.0614469 84.6187,81.2484469 C84.3937,81.3114469 84.1647,81.3414469 83.9377,81.3414469 C83.2507,81.3414469 82.5817,81.0664469 82.0797,80.5764469" transform="matrix(1 0 0 -1 0 100.664446)"/>
      </clipPath>
      <clipPath id="ink3">
        <path d="M182.8657,59.8503899 C182.8287,59.8203899 182.7917,59.7913899 182.7537,59.7633899 C182.7907,59.7923899 182.8277,59.8213899 182.8657,59.8503899 M181.2267,60.2083899 C181.2717,60.2033899 181.3157,60.1973899 181.3607,60.1913899 C181.3157,60.1973899 181.2717,60.2033899 181.2267,60.2083899 M137.4427,74.5463899 C137.4537,74.5043899 137.4647,74.4623899 137.4747,74.4203899 C137.4757,74.3723899 137.4747,74.3243899 137.4737,74.2763899 C137.4277,74.0703899 137.3677,73.8723899 137.2947,73.6733899 C136.9817,73.0263899 136.6017,72.4293899 136.1777,71.8513899 C135.8367,71.4393899 135.4737,71.0673899 135.0707,70.7203899 C134.5967,70.3993899 134.1027,70.1273899 133.5827,69.8873899 C133.2967,69.7813899 133.0117,69.6893899 132.7207,69.6113899 C132.8267,69.9943899 132.9547,70.3703899 133.0997,70.7463899 C133.3107,71.1943899 133.5447,71.6143899 133.8257,72.0233899 C134.2857,72.5853899 134.7787,73.1013899 135.3367,73.5683899 C135.7487,73.8443899 136.1687,74.0873899 136.6127,74.3023899 C136.8877,74.3983899 137.1617,74.4813899 137.4427,74.5463899 M137.6997,74.5573899 C137.7897,74.5273899 137.8787,74.4913899 137.9647,74.4473899 C137.8777,74.4823899 137.7887,74.5203899 137.6997,74.5573899 M137.2927,74.9543899 C137.3087,74.9193899 137.3247,74.8833899 137.3397,74.8483899 C137.3377,74.8493899 137.3367,74.8503899 137.3357,74.8523899 C137.3217,74.8863899 137.3077,74.9203899 137.2927,74.9543899 M136.1367,78.4083899 C135.7387,78.3413899 135.3557,78.2163899 134.9767,78.0833899 C134.0507,77.7633899 133.1877,77.2943899 132.3947,76.7283899 C131.1057,75.8103899 129.9847,74.6223899 129.1717,73.2633899 C128.7347,72.5293899 128.4137,71.7043899 128.1167,70.9083899 C128.0277,70.6713899 127.9547,70.4283899 127.8947,70.1813899 C127.5427,70.3393899 127.1957,70.5073899 126.8667,70.7013899 C126.2697,71.0443899 125.7067,71.4043899 125.1367,71.7943899 C124.2307,72.4193899 123.3597,73.0993899 122.4487,73.7203899 C121.2927,74.5093899 120.1327,75.2793899 118.8987,75.9433899 C117.5317,76.6773899 116.0347,77.0763899 114.4847,77.0873899 C112.5587,77.1033899 110.8907,75.9623899 109.8047,74.4473899 C109.0817,73.4433899 108.6017,72.2903899 108.2577,71.1073899 C108.0897,70.5333899 107.9177,69.9473899 107.8167,69.3573899 C107.5817,68.0173899 107.4027,66.6773899 107.2497,65.3293899 C106.9767,62.9513899 106.7417,60.5723899 106.4487,58.2013899 C106.4187,57.9693899 106.3897,57.7383899 106.3617,57.5043899 C106.3427,57.3813899 106.3237,57.2583899 106.3037,57.1343899 C105.9967,57.5873899 105.7077,58.0493899 105.4297,58.5293899 C105.0287,59.2303899 104.7047,59.9783899 104.3817,60.7163899 C103.9467,61.8723899 103.5167,63.0263899 103.1757,64.2123899 C102.9917,64.8573899 102.7927,65.4943899 102.6487,66.1503899 C102.4297,67.1193899 102.2147,68.0873899 102.0077,69.0603899 C101.8397,69.8693899 100.9067,70.3263899 100.1447,70.1153899 C99.3127,69.8883899 98.9177,69.0603899 99.0897,68.2513899 C99.3707,66.9003899 99.6487,65.5403899 100.0197,64.2083899 C100.3357,63.0683899 100.6717,61.9313899 101.0627,60.8143899 C101.5077,59.5483899 102.0197,58.3223899 102.5667,57.0953899 C103.0427,56.0333899 103.6837,55.0403899 104.3277,54.0793899 C104.6367,53.6153899 104.9607,53.1383899 105.3747,52.7593899 C105.8907,52.2793899 106.8207,51.8143899 107.5387,52.1033899 C107.9487,52.2673899 108.2887,52.4003899 108.6287,52.6933899 C108.9067,52.9313899 109.1097,53.2123899 109.3237,53.5093899 C109.5197,53.7793899 109.6597,54.2123899 109.7777,54.5133899 C109.9607,54.9703899 110.0977,55.4353899 110.2147,55.9123899 C110.5587,57.2713899 110.7887,58.6653899 111.0627,60.0373899 C111.5117,62.3103899 111.8827,64.5953899 112.3277,66.8693899 C112.5677,68.1163899 112.9227,69.3593899 113.3697,70.5503899 C113.5797,71.0013899 113.8177,71.4293899 114.0987,71.8413899 C114.2347,71.9873899 114.3707,72.1233899 114.5177,72.2563899 C114.5307,72.2643899 114.5417,72.2713899 114.5547,72.2793899 C114.6497,72.3063899 114.7447,72.3303899 114.8427,72.3523899 C115.2127,72.3753899 115.5827,72.3723899 115.9527,72.3453899 C116.5527,72.2123899 117.1217,72.0213899 117.6917,71.7963899 C118.6767,71.3553899 119.6607,70.9033899 120.6017,70.3723899 C121.5897,69.8143899 122.5707,69.2403899 123.5547,68.6733899 C124.8277,67.9443899 126.1487,67.3463899 127.5207,66.8283899 C127.5137,65.4943899 127.7087,64.1433899 127.9337,62.8453899 C128.0707,62.0643899 128.3007,61.3023899 128.5817,60.5643899 C128.9917,59.4973899 129.5667,58.5993899 130.2737,57.7083899 C131.3907,56.2903899 132.8237,55.1853899 134.4217,54.3533899 C135.3087,53.8883899 136.2457,53.5053899 137.1987,53.2013899 C138.1137,52.9083899 139.0777,52.7903899 140.0317,52.6893899 C142.1367,52.4663899 144.1987,53.1073899 146.0507,54.0563899 C146.9567,54.5173899 147.7697,55.2203899 148.5037,55.9083899 C149.2027,56.5603899 149.7577,57.4003899 150.2657,58.2013899 C151.0997,59.5153899 151.6827,60.9693899 152.1827,62.4453899 C152.2227,62.3783899 152.2637,62.3133899 152.3047,62.2473899 C153.0897,60.9823899 154.0197,59.8263899 155.0157,58.7243899 C156.5777,56.9943899 158.6207,55.6223899 160.7817,54.7593899 C161.6797,54.4003899 162.6097,54.2443899 163.5737,54.2043899 C164.0347,54.1853899 164.4957,54.2943899 164.9527,54.3573899 C165.4957,54.4313899 166.0197,54.7083899 166.4997,54.9473899 C166.8787,55.1343899 167.2387,55.4433899 167.5627,55.7013899 C167.8517,55.9313899 168.1247,56.1733899 168.3867,56.4353899 C168.7777,56.8313899 169.1567,57.2413899 169.5707,57.6123899 C169.7537,57.7333899 169.9397,57.8433899 170.1337,57.9443899 C170.2907,57.9943899 170.4477,58.0363899 170.6077,58.0713899 C171.0387,58.0943899 171.4607,58.0773899 171.8907,58.0353899 C173.7227,57.7243899 175.5407,57.2823899 177.3477,56.8653899 C178.3437,56.6303899 179.3397,56.4083899 180.3437,56.2283899 C181.3667,56.0443899 182.3907,55.9043899 183.4257,55.8923899 C183.7107,55.8923899 183.9917,55.9233899 184.2697,55.9783899 C184.6567,56.0563899 184.9997,56.2283899 185.3597,56.3883899 C185.7307,56.5523899 186.0547,56.8843899 186.3557,57.1543899 C186.6527,57.4193899 186.8747,57.7983899 187.0977,58.1263899 C187.2107,58.3183899 187.3087,58.5213899 187.3907,58.7243899 C187.5667,59.1303899 187.7067,59.5013899 187.8127,59.9233899 C187.9767,60.5793899 188.0237,61.2753899 188.0977,61.9433899 C188.1917,62.8103899 188.1597,63.7043899 188.1757,64.5763899 C188.1917,65.5483899 188.1247,66.5293899 188.0547,67.5013899 C187.8827,69.9313899 187.7067,72.3653899 187.4957,74.7903899 C187.4297,75.6033899 187.2227,76.2983899 186.6287,76.8883899 C186.0737,77.4433899 185.3167,77.7593899 184.5317,77.7593899 C183.7457,77.7593899 182.9887,77.4433899 182.4337,76.8883899 C181.9377,76.3963899 181.4687,75.5213899 181.5667,74.7903899 C182.0047,71.4233899 182.4877,68.0633899 183.0127,64.7063899 C183.1737,63.3563899 183.3797,62.0133899 183.2737,60.6563899 C183.2317,60.4783899 183.1827,60.3073899 183.1247,60.1363899 C183.1167,60.1213899 183.1077,60.1053899 183.0987,60.0893899 C182.6007,60.0723899 182.1077,60.1053899 181.6097,60.1623899 C179.5607,60.5073899 177.5437,61.0503899 175.5317,61.5563899 C174.1597,61.9003899 172.7927,62.2943899 171.3787,62.4273899 C170.5777,62.5013899 169.8357,62.4393899 169.0427,62.2983899 C168.3237,62.1733899 167.6057,61.7983899 166.9847,61.4273899 C166.1337,60.9193899 165.4277,60.1693899 164.6707,59.5223899 C164.4717,59.3873899 164.2707,59.2653899 164.0587,59.1533899 C164.0027,59.1363899 163.9467,59.1213899 163.8887,59.1083899 C163.6597,59.0953899 163.4347,59.0963899 163.2047,59.1103899 C162.8237,59.1973899 162.4577,59.3073899 162.0927,59.4443899 C161.1307,59.8883899 160.2107,60.4263899 159.3537,61.0483899 C158.4007,61.8363899 157.5537,62.7153899 156.7277,63.6393899 C155.6747,65.0263899 154.6687,66.4603899 153.9447,68.0463899 C153.7757,68.5073899 153.6227,69.0133899 153.3357,69.4003899 C153.1527,69.7083899 152.9097,69.9513899 152.6017,70.1343899 C152.2817,70.3183899 151.9377,70.4123899 151.5707,70.4123899 C150.8787,70.4123899 150.1327,70.0293899 149.8047,69.4003899 C149.4957,68.8103899 149.3947,68.1543899 149.2347,67.5133899 C149.1207,67.0483899 148.9847,66.5913899 148.8557,66.1303899 C148.6577,65.4493899 148.3807,64.7863899 148.1087,64.1283899 C147.4787,62.7963899 146.8147,61.5033899 145.9507,60.3123899 C145.6287,59.9333899 145.2907,59.5873899 144.9147,59.2623899 C144.4557,58.9373899 143.9867,58.6533899 143.4817,58.4093899 C142.9337,58.2063899 142.3867,58.0483899 141.8177,57.9383899 C141.2557,57.9023899 140.7027,57.9153899 140.1447,57.9703899 C139.3467,58.1213899 138.5797,58.3433899 137.8217,58.6323899 C136.9747,59.0233899 136.1667,59.4623899 135.4057,59.9993899 C134.9027,60.4243899 134.4517,60.8853899 134.0317,61.3893899 C133.7627,61.7793899 133.5287,62.1713899 133.3247,62.5953899 C132.9727,63.5763899 132.7307,64.5783899 132.5677,65.6043899 C132.5417,65.8493899 132.5207,66.0933899 132.5037,66.3383899 C134.0597,66.5483899 135.5497,67.1403899 136.8597,67.9973899 C138.1757,68.8613899 139.1957,70.1653899 140.0507,71.4623899 C140.4257,72.0293899 140.7107,72.6583899 140.9337,73.2983899 C141.0387,73.5993899 141.0937,74.0443899 141.1097,74.3533899 C141.1327,74.8963899 141.0427,75.4273899 140.9177,75.9543899 C140.7537,76.6383899 140.4067,77.2553899 139.8637,77.7013899 C139.5037,77.9943899 139.1287,78.2283899 138.6837,78.3693899 C138.2777,78.4943899 137.8787,78.5373899 137.4527,78.5723899 C137.4007,78.5773899 137.3467,78.5793899 137.2927,78.5793899 C136.9107,78.5793899 136.5027,78.4693899 136.1367,78.4083899" transform="matrix(1 0 0 -1 0 130.59359)"/>
      </clipPath>
      <clipPath id="ink4">
        <path d="M256.1201,58.7135612 C256.1141,58.6695612 256.1071,58.6245612 256.1011,58.5805612 C256.1071,58.6245612 256.1141,58.6695612 256.1201,58.7135612 M256.1561,59.0025612 C256.1471,58.9175612 256.1361,58.8335612 256.1251,58.7495612 C256.1351,58.8335612 256.1451,58.9175612 256.1561,59.0025612 M238.9801,70.9165612 C238.9751,70.8675612 238.9691,70.8185612 238.9631,70.7705612 C238.9681,70.8185612 238.9741,70.8675612 238.9801,70.9165612 M246.1251,74.1775612 C249.4521,73.6405612 252.6751,72.6015612 255.7991,71.3555612 C256.9421,70.8415612 258.0841,70.3285612 259.2261,69.8185612 C261.8011,68.6625612 264.2231,67.1905612 266.5551,65.6155612 C268.8081,64.0925612 270.9421,62.3945612 273.0941,60.7345612 C274.6981,59.4285612 276.2781,58.1145612 277.7461,56.6585612 C279.1521,55.2565612 280.4581,53.7585612 281.6891,52.2015612 C283.0571,50.4135612 284.3201,48.5465612 285.4491,46.5965612 C286.6601,44.5025612 287.7111,42.2995612 288.6521,40.0725612 L288.4061,40.6475612 C289.5491,37.9055612 290.6951,35.0865612 291.2001,32.1445612 C291.2821,31.4015612 291.3161,30.6615612 291.2581,29.9175612 C291.1461,29.3655612 290.9931,28.8345612 290.7991,28.3095612 C290.5341,27.7585612 290.2271,27.2395612 289.8741,26.7415612 C289.3281,26.1005612 288.7281,25.5185612 288.0801,24.9765612 C286.8161,24.0655612 285.4361,23.3765612 284.0121,22.7515612 C283.1711,22.4135612 282.3181,22.1105612 281.4571,21.8265612 C280.4781,21.5075612 279.5031,21.1615612 278.4951,20.9625612 C277.1561,20.8525612 275.8171,20.9495612 274.4801,21.1105612 C273.5871,21.2375612 272.6981,21.3855612 271.8161,21.5725612 C270.6291,21.8185612 269.4611,22.1545612 268.2971,22.4905612 C266.1711,23.1065612 264.0411,23.7185612 261.9861,24.5505612 C261.0571,24.9715612 260.1721,25.4465612 259.3391,26.0315612 C259.0961,26.2385612 258.8651,26.4545612 258.6441,26.6825612 C258.6321,26.7365612 258.6201,26.7925612 258.6051,26.8465612 C258.4961,27.2725612 258.3941,27.6975612 258.2931,28.1275612 C258.1021,28.8975612 257.9431,29.6745612 257.7871,30.4555612 C257.8071,30.5075612 257.8271,30.5595612 257.8481,30.6115612 C257.9731,31.0845612 257.9731,31.5575612 257.8481,32.0295612 C257.7481,32.3875612 257.5731,32.7215612 257.3391,33.0085612 C257.2211,33.7625612 257.1101,34.5185612 256.9991,35.2745612 C256.8241,36.6455612 256.6481,38.0175612 256.4881,39.3895612 C256.3981,40.1905612 256.3051,40.9945612 256.2111,41.7955612 C256.1131,42.6315612 256.0861,43.4795612 256.0271,44.3155612 C255.9061,45.9165612 255.8511,47.5065612 255.8051,49.1115612 C255.7061,52.3285612 255.7331,55.5425612 256.1241,58.7415612 C256.3761,60.5945612 256.6611,62.4385612 256.9651,64.2795612 C257.0351,64.7175612 257.0351,65.1005612 256.8051,65.4985612 C256.5981,65.8505612 256.2541,66.1155612 255.8591,66.2255612 C255.4531,66.3385612 255.0081,66.2795612 254.6411,66.0655612 C254.3201,65.8775612 253.9761,65.5025612 253.9141,65.1195612 C253.4261,62.1235612 252.9141,59.1115612 252.7031,56.0805612 C252.5621,53.9945612 252.5741,51.8975612 252.6411,49.8115612 C252.6801,48.5685612 252.7231,47.3305612 252.7621,46.0885612 C252.7971,44.9595612 252.9331,43.8185612 253.0231,42.6905612 C253.1681,40.7795612 253.4221,38.8775612 253.6761,36.9795612 C253.8211,35.8955612 253.9751,34.8135612 254.1411,33.7345612 C253.8601,33.6025612 253.5851,33.4195612 253.3611,33.1985612 C252.4881,34.5115612 251.6151,35.8205612 250.7381,37.1315612 C249.8481,38.4635612 248.9491,39.7955612 248.0821,41.1435612 C247.5161,42.0185612 246.9531,42.8935612 246.3871,43.7685612 C245.7811,44.7055612 245.2661,45.7135612 244.7501,46.6975612 C244.1341,47.8715612 243.5821,49.0835612 243.0601,50.3075612 C242.1301,52.5535612 241.3461,54.8845612 240.7931,57.2525612 L239.9021,61.0375612 C239.4741,62.8745612 239.1961,64.7335612 238.9401,66.5965612 C238.8201,67.9605612 238.7991,69.2975612 238.9501,70.6585612 C239.0161,71.0025612 239.1051,71.3225612 239.2221,71.6485612 C239.3031,71.8125612 239.3891,71.9655612 239.4881,72.1175612 C239.6281,72.2675612 239.7701,72.4025612 239.9231,72.5365612 C240.4481,72.9095612 241.0011,73.2265612 241.5901,73.4915612 C242.4281,73.8115612 243.2891,74.0665612 244.1751,74.2265612 C244.8281,74.2815612 245.4721,74.2525612 246.1251,74.1775612 M244.6091,77.3975612 C243.2231,77.3115612 241.8871,76.7365612 240.6331,76.1825612 C240.0161,75.9085612 239.4491,75.5415612 238.9021,75.1475612 C238.6411,74.9555612 238.3911,74.7485612 238.1441,74.5415612 C237.8241,74.2685612 237.5821,73.9285612 237.3281,73.5965612 C237.1521,73.3695612 237.0231,73.0415612 236.9301,72.7765612 C236.8281,72.4945612 236.7501,72.2175612 236.6801,71.9285612 C236.5191,71.2685612 236.5311,70.5685612 236.5161,69.8935612 C236.4921,68.6785612 236.6171,67.4285612 236.8201,66.2335612 C236.9881,65.2405612 237.1371,64.2445612 237.3511,63.2605612 C237.8361,61.0225612 238.3671,58.7955612 238.9061,56.5685612 C239.5311,53.9905612 240.3911,51.4595612 241.4261,49.0225612 C242.3941,46.7405612 243.4691,44.4795612 244.7621,42.3615612 C246.4651,39.5805612 248.2111,36.8265612 249.9491,34.0685612 C250.6791,32.9145612 251.3981,31.7535612 252.1161,30.5925612 C252.1001,30.5375612 252.0851,30.4835612 252.0701,30.4285612 C251.8201,29.4865612 251.8121,28.5335612 251.9691,27.5805612 C252.2501,25.9005612 253.1091,24.4045612 254.1721,23.1005612 C255.0861,21.9865612 256.2691,21.1005612 257.5041,20.3655612 C258.0981,20.0145612 258.7301,19.7295612 259.3631,19.4555612 C260.2341,19.0765612 261.1091,18.7255612 262.0041,18.4085612 C263.3401,17.9365612 264.7111,17.5655612 266.0741,17.1705612 C267.5901,16.7295612 269.1051,16.3075612 270.6521,15.9945612 C272.2071,15.6785612 273.8051,15.4795612 275.3831,15.3345612 C277.0431,15.1785612 278.7381,15.2295612 280.3711,15.6115612 C281.0231,15.7645612 281.6601,16.0105612 282.2931,16.2295612 C282.9451,16.4555612 283.6011,16.6785612 284.2501,16.9205612 C285.7541,17.4795612 287.2261,18.1395612 288.6441,18.8815612 C289.9491,19.5615612 291.1411,20.4405612 292.2381,21.4125612 C293.4021,22.4435612 294.4061,23.7295612 295.1291,25.1005612 C295.8481,26.4595612 296.2731,27.9405612 296.4261,29.4675612 C296.5861,31.0845612 296.3121,32.7525612 295.9331,34.3185612 C295.5821,35.7685612 295.0511,37.1705612 294.4961,38.5495612 C293.8671,40.1045612 293.2191,41.6515612 292.5191,43.1705612 C291.2661,45.9005612 289.8121,48.5495612 288.1411,51.0455612 C286.4801,53.5225612 284.6051,55.8695612 282.5661,58.0415612 C280.4691,60.2795612 278.1171,62.2875612 275.6441,64.0965612 C274.7931,64.7175612 273.9411,65.3425612 273.0901,65.9675612 L270.3831,67.9475612 C269.3401,68.7175612 268.2111,69.3935612 267.1051,70.0725612 C265.8011,70.8735612 264.4611,71.5965612 263.0821,72.2525612 C261.6411,72.9405612 260.1641,73.5265612 258.6871,74.1235612 C258.1681,74.3305612 257.6481,74.5415612 257.1331,74.7525612 C256.0121,75.2055612 254.8321,75.5455612 253.6721,75.8895612 C252.2691,76.2995612 250.8511,76.6625612 249.4181,76.9405612 C248.6761,77.0805612 247.9181,77.1825612 247.1641,77.2795612 C246.5271,77.3605612 245.8951,77.4165612 245.2581,77.4165612 C245.0421,77.4165612 244.8261,77.4105612 244.6091,77.3975612" transform="matrix(1 0 0 -1 0 92.668662)"/>
      </clipPath>
      <clipPath id="ink5">
        <path d="M307.081,39.1224404 C307.019,39.1104404 306.955,39.1014404 306.893,39.0964404 C306.956,39.1044404 307.019,39.1134404 307.081,39.1224404 M312.393,47.8084404 C312.328,47.7994404 312.263,47.7904404 312.198,47.7824404 C312.263,47.7944404 312.327,47.8024404 312.393,47.8084404 M313.401,48.3174404 C313.356,48.2834404 313.311,48.2484404 313.267,48.2134404 C313.31,48.2504404 313.354,48.2854404 313.401,48.3174404 M328.183,51.5464404 C328.154,51.4774404 328.126,51.4094404 328.097,51.3414404 L328.183,51.5464404 Z M353.737,76.5324404 C353.296,76.2784404 352.804,75.7514404 352.729,75.2244404 C352.19,71.4314404 351.632,67.6384404 351.077,63.8494404 L350.257,58.1884404 C350.093,57.0484404 349.921,55.9034404 349.761,54.7634404 C349.585,53.5364404 349.39,52.3174404 349.128,51.1104404 C348.876,49.9764404 348.461,48.8624404 348.025,47.7864404 C347.519,46.6224404 346.966,45.4864404 346.264,44.4294404 C346.186,44.3434404 346.105,44.2614404 346.02,44.1814404 C345.97,44.1504404 345.918,44.1214404 345.866,44.0944404 C345.837,44.0844404 345.809,44.0744404 345.779,44.0664404 C345.676,44.0924404 345.573,44.1214404 345.471,44.1544404 C345.21,44.2934404 344.965,44.4454404 344.722,44.6134404 C343.519,45.6224404 342.538,46.8344404 341.578,48.0704404 C340.905,48.9954404 340.259,49.9284404 339.632,50.8844404 C339.007,51.8414404 338.413,52.8254404 337.804,53.7944404 C337.483,54.3024404 337.147,54.7984404 336.784,55.2744404 C336.327,55.8724404 335.858,56.4894404 335.268,56.9584404 C334.487,57.5834404 333.495,58.0594404 332.464,57.7744404 C331.581,57.5324404 330.929,56.8644404 330.405,56.1494404 C329.788,55.2984404 329.382,54.3454404 328.964,53.3884404 C328.721,52.8304404 328.487,52.2694404 328.252,51.7094404 C327.947,51.0224404 327.637,50.3374404 327.311,49.6574404 C326.856,48.6954404 326.275,47.7724404 325.641,46.9144404 C325.298,46.5054404 324.939,46.1234404 324.543,45.7664404 C324.46,45.7114404 324.376,45.6604404 324.289,45.6114404 C324.183,45.5824404 324.077,45.5564404 323.97,45.5324404 C323.857,45.5284404 323.746,45.5274404 323.634,45.5314404 C323.377,45.5924404 323.127,45.6664404 322.878,45.7554404 C322.497,45.9474404 322.135,46.1634404 321.783,46.4084404 C320.847,47.1914404 319.99,48.0604404 319.124,48.9154404 C317.358,50.6534404 315.456,52.7004404 312.808,52.7984404 C312.401,52.8134404 311.921,52.7904404 311.534,52.6854404 C311.128,52.5794404 310.757,52.4114404 310.382,52.2314404 C310.05,52.0714404 309.706,51.7124404 309.476,51.4194404 C309.202,51.0714404 308.979,50.7744404 308.776,50.3884404 C308.413,49.7004404 308.179,48.9074404 307.972,48.1614404 C307.819,47.6064404 307.726,47.0364404 307.636,46.4704404 C307.433,45.1704404 307.287,43.8614404 307.14,42.5544404 C307.098,42.2524404 307.056,41.9514404 307.015,41.6494404 C306.896,40.8024404 306.66,39.9904404 306.359,39.1964404 C306.316,39.2104404 306.273,39.2244404 306.229,39.2384404 C305.076,39.7694404 303.983,40.4344404 302.89,41.0834404 C301.791,41.7354404 300.771,42.5254404 299.752,43.2964404 C297.613,45.0434404 295.552,46.8754404 293.503,48.7274404 C292.768,49.3924404 291.663,49.4544404 290.936,48.7274404 C290.261,48.0564404 290.202,46.8214404 290.936,46.1614404 C294.44,42.9934404 297.944,39.8024404 301.921,37.2274404 C303.03,36.5134404 304.155,35.7394404 305.382,35.2434404 C306.003,34.9934404 306.671,34.8724404 307.339,34.9424404 C307.808,34.9934404 308.241,35.0714404 308.655,35.3134404 C308.952,35.4854404 309.245,35.7554404 309.472,36.0174404 C309.976,36.6064404 310.304,37.2594404 310.62,37.9584404 C310.933,38.6494404 311.179,39.3454404 311.362,40.0754404 C311.628,41.1304404 311.772,42.2164404 311.952,43.2864404 C312.199,44.7754404 312.469,46.2464404 312.977,47.6654404 C313.12,47.5844404 313.257,47.4984404 313.391,47.4054404 C314.71,46.2964404 315.893,44.9994404 317.116,43.7864404 C318.136,42.7744404 319.276,41.8334404 320.585,41.2274404 C321.647,40.7354404 322.745,40.4344404 323.921,40.4384404 C325.03,40.4424404 326.163,40.8064404 327.097,41.3764404 C327.878,41.8564404 328.538,42.5484404 329.12,43.2474404 C329.753,44.0054404 330.315,44.8214404 330.815,45.6734404 C331.257,46.4154404 331.616,47.1924404 331.964,47.9774404 C332.564,49.3284404 333.057,50.7164404 333.583,52.0924404 C334.569,50.6514404 335.428,49.1194404 336.354,47.6424404 C337.276,46.1734404 338.3,44.7674404 339.366,43.3994404 C340.456,41.9974404 341.663,40.6224404 343.261,39.7864404 C343.722,39.5444404 344.218,39.3644404 344.718,39.2354404 C345.034,39.1774404 345.351,39.1304404 345.667,39.0954404 C346.097,39.0794404 346.507,39.1574404 346.929,39.2204404 C347.14,39.2704404 347.343,39.3374404 347.538,39.4274404 C347.854,39.5484404 348.159,39.6844404 348.456,39.8374404 C349.077,40.1454404 349.612,40.6734404 350.034,41.2124404 C350.831,42.2314404 351.421,43.3454404 351.944,44.5284404 C352.448,45.6694404 352.894,46.8254404 353.261,48.0204404 C354.003,50.4314404 354.238,52.9644404 354.553,55.4594404 C355.417,61.8494404 356.254,68.2414404 357.038,74.6384404 C357.038,75.0364404 356.94,75.4034404 356.741,75.7474404 C356.452,76.2354404 355.976,76.6024404 355.429,76.7554404 C355.24,76.8074404 355.046,76.8334404 354.852,76.8334404 C354.463,76.8334404 354.076,76.7304404 353.737,76.5324404" transform="matrix(1 0 0 -1 0 111.75624)"/>
      </clipPath>
      <clipPath id="ink6">
        <path d="M355.2588,76.8755 C354.7198,76.3325 354.2428,75.4185 354.3288,74.6255 C354.6888,71.3755 355.0868,68.1175 355.2978,64.8485 C355.5088,61.6055 355.7468,58.3635 355.9928,55.1215 C356.4108,49.5725 357.0928,44.0485 357.6378,38.5125 C357.5108,38.0835 357.4148,37.6455 357.3638,37.1765 C357.2198,35.8675 357.3058,34.5475 357.3568,33.2345 C357.3958,32.2705 357.4818,31.3055 357.5678,30.3445 C357.6608,29.2815 357.7788,28.2155 357.9348,27.1605 C358.1728,25.5595 358.3138,23.9145 358.8958,22.3955 C359.2078,21.5745 359.6028,20.9105 360.3878,20.4535 C360.6458,20.3445 360.9038,20.2345 361.1648,20.1255 C361.7388,19.9695 362.3138,19.9695 362.8918,20.1255 C362.9778,20.1375 363.0598,20.1485 363.1458,20.1645 C363.7118,20.3205 364.2038,20.6095 364.6218,21.0235 C365.0358,21.4375 365.3218,21.9305 365.4818,22.4965 C365.8058,23.5125 365.6808,24.6805 365.6688,25.7385 C365.6608,26.4305 365.5828,27.1455 365.5128,27.8365 C365.3408,29.5275 365.1538,31.2195 364.9618,32.9065 C364.7168,35.0555 364.4508,37.2015 364.1818,39.3485 C364.1998,39.3565 364.2178,39.3645 364.2368,39.3725 C367.5798,40.6845 371.2308,41.0485 374.7468,41.6485 C375.4538,41.7705 376.1378,42.3915 376.4858,42.9885 C376.8798,43.6605 376.9858,44.4775 376.7788,45.2305 C376.3678,46.7305 374.7198,47.7195 373.1998,47.2625 C371.2428,46.6725 369.2708,46.1255 367.3248,45.4925 C366.0578,45.0765 364.8038,44.6465 363.5868,44.1155 C362.9278,49.5905 362.4218,55.0775 361.9658,60.5745 C361.7938,62.6565 361.6848,64.7425 361.4968,66.8245 C361.2628,69.4305 360.9698,72.0275 360.6848,74.6255 C360.6458,74.9065 360.6108,75.1915 360.5708,75.4735 C360.4188,76.0085 360.1458,76.4775 359.7548,76.8755 C359.1608,77.4655 358.3448,77.8055 357.5048,77.8055 C356.6688,77.8055 355.8528,77.4655 355.2588,76.8755" transform="matrix(1 0 0 -1 0 97.814)"/>
      </clipPath>
      <clipPath id="ink7">
        <path d="M400.1094,60.6236976 C400.1764,60.6146976 400.2434,60.6056976 400.3104,60.5976976 C400.2434,60.6026976 400.1764,60.6116976 400.1094,60.6236976 M401.0544,60.6396976 C400.9294,60.6126976 400.8044,60.5966976 400.6784,60.5896976 C400.8034,60.6056976 400.9284,60.6226976 401.0544,60.6396976 M401.1174,60.7796976 C401.0554,60.7526976 400.9924,60.7266976 400.9294,60.7016976 C400.9924,60.7276976 401.0544,60.7546976 401.1174,60.7796976 M382.8414,61.0646976 C382.8374,61.0626976 382.8334,61.0606976 382.8294,61.0596976 C382.7934,61.0556976 382.7574,61.0516976 382.7224,61.0486976 C382.7624,61.0546976 382.8014,61.0596976 382.8414,61.0646976 M382.1134,61.0726976 C382.1674,61.0666976 382.2214,61.0606976 382.2754,61.0536976 C382.2214,61.0586976 382.1674,61.0646976 382.1134,61.0726976 M383.0154,61.0886976 C382.9544,61.0766976 382.8934,61.0666976 382.8324,61.0596976 C382.8374,61.0606976 382.8424,61.0626976 382.8474,61.0656976 C382.9034,61.0726976 382.9594,61.0806976 383.0154,61.0886976 M421.0964,63.4096976 C421.0504,63.3896976 421.0044,63.3686976 420.9574,63.3506976 C421.0044,63.3706976 421.0504,63.3906976 421.0964,63.4096976 M422.3344,63.4106976 C422.3854,63.3896976 422.4364,63.3676976 422.4884,63.3466976 C422.4354,63.3656976 422.3844,63.3876976 422.3344,63.4106976 M431.1874,65.8936976 C431.2374,65.8756976 431.2864,65.8546976 431.3334,65.8326976 C431.2844,65.8526976 431.2364,65.8736976 431.1874,65.8936976 M474.7734,67.5926976 C474.7224,67.5536976 474.6724,67.5146976 474.6234,67.4756976 C474.6724,67.5166976 474.7214,67.5556976 474.7734,67.5926976 M413.2824,67.8636976 C413.2384,67.8576976 413.1954,67.8526976 413.1524,67.8466976 C413.1954,67.8526976 413.2384,67.8586976 413.2824,67.8636976 M413.1014,67.9636976 C413.1584,67.9576976 413.2154,67.9496976 413.2724,67.9396976 C413.2154,67.9476976 413.1584,67.9556976 413.1014,67.9636976 M414.2854,68.1466976 C414.2314,68.1246976 414.1774,68.1016976 414.1234,68.0786976 C414.1764,68.1026976 414.2304,68.1266976 414.2854,68.1466976 M494.1174,73.8386976 C492.8244,73.5926976 491.5544,73.2216976 490.3244,72.7486976 C489.6214,72.4756976 488.9294,72.1626976 488.2614,71.8186976 C487.4644,71.4086976 486.7654,70.8306976 486.0704,70.2756976 C485.1564,69.5456976 484.3554,68.6316976 483.5624,67.7716976 C482.6974,66.8246976 481.8654,65.8326976 480.9054,64.9806976 C480.8714,64.9586976 480.8364,64.9356976 480.8014,64.9136976 C480.0814,65.5626976 479.4604,66.2976976 478.8204,67.0376976 C477.9724,68.0216976 477.1914,69.1036976 476.2424,69.9986976 C476.0004,70.2056976 475.7424,70.3896976 475.4644,70.5496976 C475.1794,70.7326976 474.5114,70.9476976 474.1684,70.9006976 C473.8944,70.8656976 473.6174,70.8306976 473.3434,70.7916976 C472.9144,70.6746976 472.5474,70.4286976 472.1994,70.1626976 C471.5354,69.6586976 471.0274,69.0216976 470.4924,68.3856976 C469.6684,67.4036976 468.8344,66.4286976 467.8574,65.5926976 C467.7174,65.4996976 467.5774,65.4136976 467.4314,65.3316976 C467.3674,65.3116976 467.3014,65.2936976 467.2364,65.2766976 C467.1784,65.2756976 467.1214,65.2756976 467.0624,65.2756976 C466.9634,65.3016976 466.8674,65.3296976 466.7714,65.3596976 C466.4244,65.5436976 466.0994,65.7506976 465.7814,65.9776976 C465.0604,66.5736976 464.4034,67.2286976 463.7574,67.9086976 C463.0434,68.6626976 462.3244,69.3576976 461.4804,69.9786976 C461.0194,70.3146976 460.1684,70.4756976 459.6214,70.5146976 C459.2304,70.5416976 458.8474,70.4676976 458.4684,70.3856976 C457.2504,70.1236976 456.4144,68.8576976 456.0744,67.7446976 C455.8764,67.0876976 455.6394,66.4496976 455.3894,65.8116976 C454.9194,64.8116976 454.3784,63.8666976 453.7464,62.9586976 C453.3624,62.4996976 452.9544,62.0746976 452.5054,61.6736976 C452.3344,61.5566976 452.1604,61.4456976 451.9764,61.3416976 C451.8634,61.3056976 451.7484,61.2726976 451.6314,61.2446976 L451.5364,61.2446976 C451.3604,61.2866976 451.1884,61.3346976 451.0154,61.3916976 C450.7064,61.5516976 450.4154,61.7286976 450.1294,61.9266976 C449.8574,62.1666976 449.6014,62.4106976 449.3574,62.6716976 C449.6884,63.2196976 449.9904,63.7686976 450.2934,64.3306976 C450.6874,65.0686976 450.9884,65.8776976 451.2544,66.6706976 C451.5434,67.5256976 451.6794,68.4906976 451.6054,69.3936976 C451.5474,70.1036976 451.3474,70.8266976 450.8554,71.3656976 C450.3434,71.9246976 449.7114,72.1076976 448.9764,72.1316976 C448.2694,72.1546976 447.4844,71.7606976 446.9104,71.3896976 C446.1214,70.8776976 445.5744,70.0186976 445.1324,69.2056976 C444.1994,67.4826976 443.7384,65.5216976 443.8944,63.5686976 C443.9074,63.4036976 443.9244,63.2366976 443.9464,63.0706976 C443.7574,62.9506976 443.5664,62.8446976 443.3654,62.7416976 C443.1884,62.6796976 443.0114,62.6246976 442.8274,62.5756976 C442.6584,62.5686976 442.4914,62.5696976 442.3234,62.5786976 C442.1414,62.6226976 441.9644,62.6726976 441.7884,62.7306976 C441.5444,62.8556976 441.3094,62.9936976 441.0784,63.1446976 C440.4934,63.6546976 439.9804,64.2226976 439.4864,64.8216976 C438.7454,65.8516976 438.0524,66.9146976 437.3204,67.9476976 C436.5114,69.0886976 435.5824,70.1276976 434.3984,70.8856976 C432.6524,71.9986976 430.3864,71.4716976 428.7774,70.4046976 C427.2934,69.4246976 426.0074,68.1196976 424.7854,66.8426976 C423.8614,65.8776976 422.9394,64.8696976 421.9314,63.9806976 C421.0524,65.4006976 420.4484,67.0016976 419.7614,68.5146976 C419.1214,69.9206976 418.3714,71.3076976 417.1794,72.3266976 C416.5894,72.8306976 416.0394,73.1586976 415.3164,73.4396976 C414.7344,73.6666976 414.1364,73.7176976 413.5154,73.8036976 C412.8944,73.8856976 412.1994,73.6936976 411.6254,73.4636976 C411.2424,73.3506976 410.8904,73.1786976 410.5704,72.9436976 C410.2574,72.7096976 409.9494,72.4676976 409.6484,72.2216976 C409.1364,71.8076976 408.7224,71.2686976 408.2934,70.7716976 C407.8594,70.2686976 407.4724,69.7096976 407.0664,69.1826976 C406.4964,68.4436976 406.0074,67.6316976 405.5004,66.8506976 C404.4244,65.1926976 403.4094,63.4786976 402.2514,61.8796976 C401.9984,61.5796976 401.7414,61.2936976 401.4564,61.0236976 C401.2314,60.8836976 400.9994,60.7596976 400.7574,60.6416976 C400.7044,60.6246976 400.6504,60.6076976 400.5964,60.5946976 C400.4004,60.7086976 400.2114,60.8246976 400.0254,60.9516976 C399.7614,61.1846976 399.5234,61.4336976 399.2924,61.6996976 C398.5144,62.7986976 397.9344,64.0006976 397.3894,65.2276976 C396.8654,66.5226976 396.3884,67.8306976 395.9454,69.1626976 C395.7974,69.6116976 395.6404,70.0616976 395.4724,70.5066976 C395.1564,71.3576976 394.7974,72.2406976 394.1094,72.8576976 C393.5194,73.3896976 392.5154,73.5186976 391.8164,73.1156976 C391.0504,72.6746976 390.4764,71.9906976 389.9494,71.2956976 C388.9214,69.9366976 388.1444,68.4246976 387.3514,66.9246976 C386.5244,65.3616976 385.6004,63.8126976 384.5364,62.3946976 C384.2964,62.1076976 384.0524,61.8396976 383.7774,61.5896976 C383.5374,61.4306976 383.2924,61.2876976 383.0354,61.1586976 C382.8994,61.1126976 382.7594,61.0736976 382.6194,61.0426976 C382.5614,61.0406976 382.5034,61.0406976 382.4444,61.0426976 C381.8424,61.1746976 381.2714,61.3606976 380.7004,61.5876976 C380.0714,61.8836976 379.4514,62.1936976 378.8364,62.5216976 C378.1864,62.8636976 377.5934,63.3136976 377.0014,63.7466976 C376.3544,64.2596976 375.7064,64.7736976 375.1254,65.3576976 C374.3984,66.0926976 373.6794,66.8346976 373.0044,67.6196976 C371.6604,69.1826976 370.3824,70.7996976 369.1214,72.4326976 C369.1914,72.3466976 369.2574,72.2566976 369.3284,72.1666976 C369.1324,72.4206976 368.9414,72.6746976 368.7464,72.9286976 C368.3164,73.4986976 367.6254,73.7956976 366.9494,73.4006976 C366.3864,73.0726976 366.0434,72.1746976 366.4804,71.6036976 C368.2424,69.2836976 370.0314,66.9826976 371.9614,64.7956976 C373.7224,62.8036976 375.6604,60.9946976 377.8244,59.4436976 C378.5004,58.9596976 379.1994,58.5106976 379.9294,58.1036976 C380.6874,57.6786976 381.6524,57.2286976 382.5394,57.2096976 C383.4684,57.1936976 384.2934,57.3656976 385.1364,57.7366976 C385.7034,57.9866976 386.2574,58.3036976 386.7114,58.7256976 C387.3864,59.3506976 387.9374,60.0806976 388.4614,60.8386976 C388.9024,61.4756976 389.3044,62.1466976 389.6714,62.8306976 C390.2774,63.9676976 390.8084,65.1316976 391.3284,66.3106976 C391.7894,67.3596976 392.2304,68.4406976 392.7884,69.4506976 C393.0494,68.6956976 393.2594,67.9256976 393.4844,67.1546976 C393.7614,66.2096976 394.0504,65.2686976 394.3474,64.3306976 C394.6014,63.5256976 394.8714,62.7216976 395.1914,61.9436976 C395.4294,61.3656976 395.6684,60.7876976 395.9144,60.2136976 C396.3674,59.1666976 397.0504,58.2216976 397.8554,57.4126976 C398.3324,56.9326976 398.8714,56.4906976 399.5234,56.2716976 C400.1294,56.0646976 400.7654,55.9636976 401.4064,55.9946976 C401.9684,56.0216976 402.5394,56.1626976 403.0784,56.3116976 C403.8904,56.5296976 404.5544,56.9436976 405.2074,57.4476976 C406.6324,58.5536976 407.6524,60.1006976 408.7304,61.5296976 C409.7634,62.8946976 410.7734,64.2756976 411.8114,65.6396976 C412.4164,66.3656976 413.0194,67.0856976 413.6944,67.7436976 C413.7844,67.6546976 413.8724,67.5626976 413.9584,67.4676976 C414.8044,66.1856976 415.3934,64.7546976 416.0434,63.3616976 C416.4184,62.5646976 416.7894,61.7646976 417.2264,60.9986976 C417.4104,60.6746976 417.6324,60.3736976 417.8554,60.0726976 C418.2574,59.5216976 418.7344,58.9436976 419.3474,58.6076976 C420.4454,58.0026976 421.6014,57.8226976 422.8324,58.0376976 C424.4724,58.3226976 425.7264,59.5846976 426.9064,60.6666976 C427.4844,61.1936976 428.0394,61.7366976 428.5934,62.2876976 C429.6294,63.3226976 430.6584,64.3456976 431.7814,65.2796976 C431.8124,65.3016976 431.8424,65.3216976 431.8734,65.3426976 C432.0154,65.1866976 432.1534,65.0266976 432.2874,64.8626976 C433.0484,63.7596976 433.7594,62.6296976 434.5664,61.5576976 C434.8824,61.1356976 435.2144,60.7326976 435.5544,60.3266976 C436.1404,59.6316976 436.8984,59.0766976 437.6324,58.5496976 C438.3324,58.0536976 439.1994,57.7366976 440.0154,57.4986976 C441.0934,57.1856976 442.1604,57.2836976 443.2464,57.4356976 C444.0744,57.5496976 444.9104,58.0026976 445.6014,58.4476976 C445.7404,58.5366976 445.8764,58.6296976 446.0074,58.7276976 C446.2024,58.5106976 446.4044,58.2996976 446.6134,58.0926976 C448.0194,56.7016976 449.9844,55.8116976 451.9724,55.8966976 C454.2224,55.9906976 456.0894,57.4946976 457.4574,59.1586976 C458.4374,60.3526976 459.1874,61.6746976 459.8244,63.0626976 C460.0084,62.8536976 460.1964,62.6486976 460.3904,62.4476976 C460.8754,61.9436976 461.4884,61.5296976 462.0584,61.1316976 C462.7114,60.6826976 463.4574,60.3936976 464.1914,60.0966976 C464.8474,59.8306976 465.6294,59.7606976 466.3244,59.7286976 C466.9724,59.7016976 467.6834,59.8536976 468.2894,60.0806976 C469.6954,60.6006976 470.7184,61.5496976 471.6054,62.7326976 C472.0154,63.2836976 472.4024,63.8506976 472.7654,64.4396976 C473.1904,65.1266976 473.5434,65.8616976 473.9524,66.5606976 C474.4264,65.7546976 474.8414,64.9066976 475.2974,64.0966976 C476.2114,62.4676976 477.1094,60.7526976 478.6684,59.6436976 C479.4104,59.1116976 480.3244,58.8896976 481.2344,58.9436976 C482.3124,59.0106976 483.3364,59.4786976 484.2464,60.0376976 C485.4334,60.7716976 486.3864,61.8816976 487.3364,62.8896976 C488.3054,63.9176976 489.2564,64.9666976 490.3354,65.8786976 C490.8464,66.2196976 491.3704,66.5166976 491.9234,66.7786976 C493.3534,67.3126976 494.8264,67.6646976 496.3334,67.9066976 C499.7554,68.2856976 503.2444,68.0226976 506.6534,67.5856976 C512.7224,66.7296976 518.7444,65.5926976 524.7614,64.4326976 C527.6564,63.8736976 530.5464,63.2566976 533.4574,62.7836976 L539.3864,61.8226976 C540.5504,61.6356976 541.7114,61.4396976 542.8824,61.3266976 C546.3984,60.9786976 549.9184,60.6316976 553.4334,60.2836976 C556.4534,59.9866976 559.4884,59.8036976 562.5154,59.5686976 C568.1914,59.1236976 573.8674,58.6746976 579.5464,58.2486976 C580.2964,58.1936976 581.0434,58.1396976 581.7894,58.0886976 C582.8244,58.0146976 583.9494,58.5606976 584.6644,59.2756976 C585.4214,60.0376976 585.8554,61.0766976 585.8554,62.1506976 C585.8554,63.2256976 585.4214,64.2686976 584.6644,65.0256976 C583.8754,65.8146976 582.8864,66.1586976 581.7894,66.2176976 C575.8824,66.5106976 569.9764,66.9006976 564.0744,67.2916976 C560.6174,67.5216976 557.1604,67.7486976 553.6994,67.9786976 C550.5464,68.1856976 547.3984,68.4986976 544.2504,68.7606976 C543.6414,68.8116976 543.0294,68.8616976 542.4174,68.9126976 C539.7774,69.2816976 537.1344,69.6356976 534.4964,69.9986976 C533.1254,70.1866976 531.7574,70.4636976 530.3904,70.6936976 C528.6054,70.9946976 526.8204,71.2956976 525.0354,71.6006976 C522.3944,72.0456976 519.7424,72.4396976 517.0974,72.8576976 C515.2464,73.1546976 513.3754,73.3386976 511.5154,73.5726976 C508.5504,73.9476976 505.5864,74.2836976 502.5974,74.4006976 C501.9964,74.4256976 501.3954,74.4376976 500.7974,74.4376976 C498.5564,74.4376976 496.3374,74.2616976 494.1174,73.8386976" transform="matrix(1 0 0 -1 0 130.328798)"/>
      </clipPath>
    </g>
    <g stroke="#979797" class="pen">
      <g clip-path="url(#ink1)">
        <path d="M2.73352601,25.2164397 C-0.482476072,52.4636134 -0.634544981,70.7720488 2.27731929,80.1417461 C0.42938779,57.8289432 1.24561554,38.7089094 4.72600253,22.7816446 C7.56097923,10.204433 10.8186858,2.63386906 14.4991222,0.0699527671 C21.1372419,-2.89208718 28.9937642,90.5552236 27.9846664,81.4506213" transform="translate(2.090477 2.048679)"/>
      </g>
      <g clip-path="url(#ink2)">
        <path d="M5.10259603,63.2221873 C21.2083952,59.1265863 30.7898954,56.1003641 33.8470966,54.1435207 C36.6110458,60.3348207 33.8470966,72.8788055 41.2117229,77.4057627 C47.0294561,76.5307107 48.0234058,61.3348207 53.9929301,58.9335207 C56.8751511,58.9335207 63.1773513,67.8450207 66.3527229,70.8157482 C69.3052229,71.5233207 69.8145581,66.1165258 71.2437248,64.6823207 C72.6728916,63.2481157 74.6998265,68.6318207 78.22461,67.0945545 C80.7757536,66.4229849 81.7976914,63.9670475 81.2904237,59.7267423 C78.9467229,57.4883163 73.7035464,63.3733607 73.7035464,67.0945545 C73.7035464,70.8157482 76.8687191,71.6844346 79.9427229,71.6844346 C83.0167266,71.6844346 90.6924111,65.7893724 89.0616578,49.5948741 C86.2031711,29.607973 83.8663937,19.6145224 82.0513253,19.6145224 C77.4591147,19.6145224 86.3311745,71.1627564 96.5983324,79.5752258" transform="translate(2.090477 2.048679)"/>
      </g>
      <g clip-path="url(#ink3)">
        <path d="M98.0542229,58.4295207 C100.957563,69.1077207 103.252672,74.5309874 104.939551,74.6993207 C107.46987,74.9518207 105.952727,53.7445207 111.68629,54.1435207 C117.419853,54.5425207 122.14898,59.8166405 127.294097,60.6573207 C133.754187,60.3987525 136.984232,58.0726945 136.984232,53.679147 C136.984232,48.5101426 128.373109,53.9985207 128.373109,58.9335207 C128.373109,63.8685207 127.021431,70.9928787 137.651332,74.1993207 C144.407976,75.4518207 148.092465,65.1823207 149.472691,61.3348207 C151.99194,61.0613207 155.650793,72.4622323 161.154804,72.4622323 C166.658815,72.4622323 165.643891,68.0238333 168.493485,68.0238333 C171.34308,68.0238333 179.730477,72.5926874 181.99046,69.9260875 C184.250443,67.2594877 183.446858,57.4176242 181.99046,50.8895659" transform="translate(2.090477 2.048679)"/>
      </g>
      <g clip-path="url(#ink4)">
        <path d="M253.550123,24.2113899 C251.552777,37.1004038 251.88611,50.1126457 254.550123,63.2481157" transform="translate(2.090477 2.048679)"/>
        <path d="M252.325508,61.3085555 C246.556405,52.5400872 242.803556,46.448786 241.06696,43.0346518 C238.462066,37.9134505 235.425451,25.7280379 235.508765,20.2764207 C235.59208,14.8248036 243.384622,14.3954127 244.703091,14.7042012 C246.02156,15.0129898 260.101737,18.808759 266.246047,23.6986884 C272.390357,28.5886178 285.85938,36.8644323 290.909523,53.8424207 C295.959666,70.8204092 276.445975,73.6799159 268.736748,72.3890183 C261.32854,70.4914885 255.670912,67.2571054 251.763863,62.6858691" transform="translate(2.090477 2.048679)"/>
      </g>
      <g clip-path="url(#ink5)">
        <path d="M289.533367,62.0047864 C292.653297,64.4014207 301.403765,72.3825692 304.896523,72.660401 C308.38928,72.9382328 306.892544,58.7636207 310.205023,58.7636207 C313.517501,58.7636207 317.714916,67.1074207 321.63222,67.1654207 C325.549523,67.2234207 328.327701,53.8424207 330.872002,53.8424207 C333.416304,53.8424207 339.189895,67.8437207 343.566709,68.1694207 C347.943523,68.4951207 352.761523,42.553769 352.761523,32.8741207" transform="translate(2.090477 2.048679)"/>
      </g>
      <g clip-path="url(#ink6)">
        <path d="M354.947523,17.9598207 C355.73064,22.4367573 357.59745,42.2645999 360.547953,77.4433485 C358.598358,70.5923579 357.623561,65.0862153 357.623561,60.9249207 C357.623561,54.6829789 364.284367,51.7406903 374.791919,50.8015069" transform="translate(2.090477 2.048679)"/>
      </g>
      <g clip-path="url(#ink7)">
        <path d="M364.869721,55.0429434 C369.313946,59.9247494 375.465979,68.9344683 381.333423,68.9344683 C387.200867,68.9344683 388.016535,56.8421908 390.377893,56.8421908 C392.739252,56.8421908 394.226613,69.5981207 399.275923,70.0981207 C404.325233,70.5981207 406.57568,55.9207608 411.126923,56.8421908 C415.678166,57.7636207 417.27462,68.3554207 419.820923,68.0394207 C422.367226,67.7234207 424.728637,59.6674207 429.169923,59.6674207 C433.611208,59.6674207 435.382956,68.9344683 439.473531,68.9344683 C443.564105,68.9344683 450.809567,58.6850507 447.186836,57.7636207 C443.564105,56.8421908 441.838385,69.3106789 447.186836,69.7043998 C452.535288,70.0981207 455.087163,60.4249207 458.331191,60.4249207 C461.575219,60.4249207 459.049562,65.4014207 465.016173,65.4014207 C470.982784,65.4014207 468.544136,59.6674207 472.107923,59.6674207 C475.67171,59.6674207 475.67171,67.0394207 478.929138,67.0394207 C482.186566,67.0394207 484.041045,57.7636207 492.13655,57.7636207 C500.232055,57.7636207 503.046692,56.2191219 517.604034,59.6674207 C532.161377,63.1157195 576.754257,66.4775373 583.764923,66.4775373" transform="translate(2.090477 2.048679)"/>
      </g>
    </g>
  </g>
</svg>
