<svg xmlns="http://www.w3.org/2000/svg" viewBox="0 0 586 85">
  <g fill-rule="nonzero">
    <path d="M20.8 18.3v0m-4-14.7h.1m-.4-3a2 2 0 00-.6 0 4.2 4.2 0 00-2 1.5l-1 1.4-1.1 2-1 2.1c-.4.8-.8 1.6-1 2.4l-.9 2.2L8 15l-1.3 4.5-.4 1.6-.8 3.3a51 51 0 00-.5 2 .8.8 0 00-.6-.2c-.5 0-.8.3-.8.7L2.3 37.7l-.5 4.9-.4 5.4-.3 4.5-.1 2.7v1.7a138.8 138.8 0 00.4 10.2L2 74a99 99 0 00.7 5.3l.2 1a47.6 47.6 0 00.3 1.4c0 .3.2.5.4.7.4.5 1.4.3 1.8-.3l.2-.5v-.3-.5-1l-.2-1.4-.2-2-.3-3-.2-1.7-.4-5.9v-3.6l-.1-5.8v-1l.2-3 .4-5.7v-1l.4-3.2.4-4 .9-5 .8-4.2 1-4L9 22l.5-1.6 1.5-5 .9-2.5 1-2.5c.3-1 .7-1.8 1.2-2.7.6-1.2 1.2-2.4 2-3.4l.4-.6h.1l.2.1 1 2c1.7 4.2 2.2 8.6 3 13l1 8.1 1.1 9 1.2 10.6 1 8.4 1 10.6c.7 5.7 1 11.5 1.9 17.2 0 .4.3.7.5 1a2.1 2.1 0 003 0c.4-.4.7-1 .6-1.5l-1-8.7-1-7.8-.7-6v.5l-2.4-19.5-2.6-19-.6-4.1-1-5.5c0-.8-.3-1.6-.5-2.4a40 40 0 00-2.8-7.5c-.3-.5-.8-.9-1.3-1.3-.4-.3-1-.4-1.6-.4h-.2"/>
    <path d="M43 77h-.3.2m0-.3h.3-.3M82.1 63.2a9.4 9.4 0 01-.6 3.7 6 6 0 01-.5.8l-.3.4h-.2a4 4 0 01-.6 0 6.4 6.4 0 01-1.4-.5v-.2l1.6-2.6 1.2-1.3.7-.4m.4 0h-.2.2m-.4-.2v0M82 20l-.9 1-.5 1.1c-.2.3-.2.7-.3 1l-.1 1.4a71.7 71.7 0 00.7 13.2l.7 4.7.4 2.3 1 4.7.6 2.3c.6 2.4 1.2 4.7 2 7a87 87 0 001.7 5.3l-.8 2.2a15 15 0 01-1.4 2.4l-1 1-1.2.7a9 9 0 01-1.2.4h-1l-.9-.2h.5c2.5 0 3.7-2.6 4.3-4.6l.4-1.8c.1-.6.3-1.3 0-2a3.4 3.4 0 00-2-2.4 3 3 0 00-1.1-.2c-.4 0-.7 0-1.1.2-.4 0-.7.2-1 .4a7 7 0 00-1.8 1.2 15.2 15.2 0 00-3 3.7l-.2.2c-.8-.5-2-.6-2.7.1-.5.5-.8 1.1-1 1.7-.6 1.1-1 2.2-1.7 3.2l-.3.3-.5-.3-2-2.2c-1.2-1.6-2.4-3.3-3.8-4.8-1.1-1.2-2.3-2.2-3.5-3.2-.6-.5-1.2-.8-2-1-.7-.3-1.6-.2-2.3 0-.9.2-1.6.8-2.2 1.3-.6.4-1 1-1.4 1.6L49.8 65l-1.3 2.7-1.5 3.2c-.7 1.5-1.4 3-2.4 4.4l-1.4 1.5h-.5v-.2c-.2 0-.3-.1-.3-.2l-1-1.8c-1-2.3-1.4-4.7-1.7-7.1l-.6-7-.3-3.2-.1-1-.5-1.2-1-1a3 3 0 00-1.8-.5c-1.2 0-2.2.6-3.2 1L31 55c-3.4 1.3-6.9 2.3-10.3 3.3L15.5 60l-6 1.4c-1.7.4-2.6 2.3-2.2 3.8.2.8.7 1.5 1.4 1.9.8.4 1.6.5 2.4.3 2.3-.5 4.6-1 6.9-1.7l6.5-1.9a89.2 89.2 0 0010-4l.1.2.8 7c.3 2.3.8 4.6 1.4 7l.4 1.4c.2.7.5 1.3.9 2 .3.8.8 1.6 1.4 2.3a5.5 5.5 0 004.3 1.6c.5 0 1-.2 1.5-.4l1-.8c.7-.5 1.2-1.2 1.7-1.8.9-1 1.6-2.1 2.2-3.3L51 73l1.4-3.2a39 39 0 013.6-6.4l.4-.2 1 .6a25 25 0 013.6 3.4l2.8 3.6c.6.7 1.2 1.4 2 2 .7.6 1.5 1.2 2.5 1.4 1 .3 2.1 0 3-.7a8 8 0 002.3-4c.1.9.4 1.8.9 2.6a7.7 7.7 0 003.9 3 9 9 0 007.5-.7l2-1.4c.6-.5 1-1.2 1.6-1.8 0-.2.2-.3.3-.5l1.6 4 1.1 2.2 1.7 2.9a3 3 0 001.8 1.3 3 3 0 002.3-.3 3 3 0 001-4c-1-1.6-1.7-3.4-2.5-5l.3.6-1.3-3-1.4-3.4-1.2-3.3a72 72 0 01-.4-1.2 47.7 47.7 0 000-13c-.2-2.2-.6-4.3-1-6.4l-.8-3.7-3.4-14.2-.4-1.1c-.2-1-.6-1.8-1.1-2.6-.4-.6-1-1-1.6-1.2H84c-.6 0-1.3.2-1.8.7M181.20000000000002 70.4h0M137.4 56V56.3l-.1.6c-.3.7-.7 1.3-1.1 1.8L135 60l-1.5.8-.9.3.4-1.2.7-1.2 1.5-1.6 1.3-.7.8-.3m.3 0l.3.1h-.3m-.4-.5a4.9 4.9 0 010 .1m-1.2-3.5a10.2 10.2 0 00-3.7 1.7 11.6 11.6 0 00-4.5 6.5l-1-.5-1.8-1.1-2.7-2c-1.1-.7-2.3-1.5-3.5-2.1a9.4 9.4 0 00-4.4-1.2c-2 0-3.6 1.1-4.7 2.6-.7 1-1.2 2.2-1.5 3.4l-.5 1.7a67 67 0 00-.6 4l-.8 7.2v.7l-.1.4-.9-1.4-1-2.2c-.5-1.2-.9-2.3-1.2-3.5l-.6-2-.6-2.9c-.2-.8-1-1.2-1.9-1-.8.2-1.2 1-1 1.8.3 1.4.5 2.8 1 4a53.6 53.6 0 002.5 7.2 20.8 20.8 0 002.8 4.3c.5.5 1.4 1 2.1.7.4-.2.8-.3 1.1-.6l.7-.8.5-1 .4-1.4.9-4.1 1.2-6.9 1-3.7.8-1.2.4-.5h1.5c.6 0 1.1.3 1.7.5l2.9 1.4 3 1.7c1.2.7 2.5 1.3 4 1.9a22.8 22.8 0 001 6.2 12.7 12.7 0 005.8 6.2A14.1 14.1 0 00140 78a10.8 10.8 0 008.5-3.2c.7-.7 1.3-1.5 1.8-2.3.8-1.3 1.4-2.8 1.9-4.3l.1.2c.8 1.3 1.7 2.5 2.7 3.6 1.6 1.7 3.6 3 5.8 4 .9.3 1.8.4 2.8.5l1.4-.2c.5 0 1-.3 1.5-.6.4-.1.7-.4 1-.7l.9-.7 1.2-1.2.5-.4h1.8l5.4 1.1a56.4 56.4 0 006.1 1h.9l1-.5c.4-.2.8-.5 1-.8.4-.2.6-.6.8-1l.3-.5.4-1.2.3-2V66v-3l-.6-7.2c0-.8-.3-1.5-.9-2a3 3 0 00-4.2 0c-.5.4-1 1.3-.8 2l1.4 10c.2 1.4.4 2.8.3 4.1l-.2.6h-1.5l-6-1.5c-1.4-.3-2.8-.7-4.2-.8-.8-.1-1.6 0-2.4.1-.7.1-1.4.5-2 .9-.9.5-1.6 1.2-2.3 1.9l-.6.3H163.2c-.4 0-.7-.1-1.1-.3-1-.4-1.9-1-2.7-1.6-1-.7-1.8-1.6-2.7-2.5-1-1.4-2-2.9-2.8-4.5-.1-.4-.3-1-.6-1.3a2 2 0 00-1.7-1 2 2 0 00-1.8 1c-.3.6-.4 1.2-.6 1.9l-.3 1.4-.8 2c-.6 1.3-1.3 2.6-2.1 3.8l-1 1-1.5.9-1.7.5h-1.7l-2.3-.7-2.4-1.4-1.4-1.4-.7-1.2a16.6 16.6 0 01-.8-3.7c1.6-.3 3-.8 4.4-1.7a11.8 11.8 0 004-5.3l.2-1c0-.6 0-1.1-.2-1.7-.1-.6-.5-1.3-1-1.7l-1.2-.7a5.7 5.7 0 00-1.4-.2l-1.2.2M256.1 33.7v0m-17.1-12v.1m7.1-3.3a46 46 0 0113.1 4.4c2.6 1.1 5 2.6 7.4 4.2 2.2 1.5 4.3 3.2 6.5 4.8a63 63 0 018.6 8.6 52.6 52.6 0 017 12.1l-.3-.6a40 40 0 012.8 8.5v2.3c0 .5-.2 1-.4 1.6l-1 1.5c-.5.7-1 1.3-1.7 1.8a22 22 0 01-6.6 3.1l-3 1a20 20 0 01-6.7-.7c-1.2-.2-2.3-.6-3.5-1-2.1-.5-4.3-1.1-6.3-2-1-.4-1.8-.9-2.7-1.5a10 10 0 01-.7-.6v-.2a66.5 66.5 0 01-.8-3.6v-.1c.2-.5.2-1 0-1.5 0-.3-.2-.7-.5-1l-.3-2.2-.5-4.1-.3-2.4-.2-2.5a102.3 102.3 0 01.1-14.5l.9-5.5c0-.4 0-.8-.2-1.2-.2-.4-.5-.6-1-.8-.3 0-.8 0-1.2.2-.3.2-.6.6-.7 1-.5 3-1 6-1.2 9a63 63 0 000 6.3v3.7l.3 3.4a100.4 100.4 0 001.1 9c-.2 0-.5.2-.7.5-1-1.3-1.8-2.7-2.7-4l-2.6-4-1.7-2.6-1.6-3a49.8 49.8 0 01-4-10.5l-.9-3.8a61 61 0 01-1-5.5v-4l.3-1 .3-.5.4-.5a9.8 9.8 0 014.3-1.7h2m-1.6-3.1a12 12 0 00-6.5 2.8l-.8 1a3 3 0 00-.4.8 8 8 0 00-.2.8c-.2.7-.2 1.4-.2 2 0 1.3.1 2.5.3 3.7l.6 3 1.5 6.7a48.7 48.7 0 005.9 14.2l5.1 8.3a402.8 402.8 0 012.2 3.6c-.3 1-.3 2-.1 2.9a9.7 9.7 0 002.2 4.5 12.6 12.6 0 005.2 3.6l2.6 1 4 1.3a56.6 56.6 0 009.4 1.8c1.6.2 3.3.1 5-.2l1.9-.7 2-.7c1.5-.5 3-1.2 4.3-2a18 18 0 003.6-2.4 11.8 11.8 0 003.7-13 106 106 0 00-3.4-8.9 56.6 56.6 0 00-10-14.8 49.5 49.5 0 00-9.4-7.9l-2.7-2-3.3-2.1-4-2.2-4.4-1.9-1.6-.6-3.4-1.1a47.3 47.3 0 00-8.4-1.5h-.7"/>
    <path d="M312.4 63.89999999999999h-.2.2m15.8-3.7l-.1.2v-.2zm25.5-25c-.4.3-.9.8-1 1.3L351.1 48l-.8 5.7-.5 3.4a21.2 21.2 0 01-3.7 10.6h-.2-.4l-.8-.5a22 22 0 01-3.1-3.4l-2-2.8-1.8-3-1-1.4-1.5-1.7c-.8-.6-1.8-1.1-2.8-.8a4 4 0 00-2.1 1.6c-.6.9-1 1.8-1.4 2.8l-.7 1.6-1 2.1a11.3 11.3 0 01-3 4 7 7 0 01-.3.1h-.4l-.7-.2a9 9 0 01-1.1-.7c-1-.7-1.8-1.6-2.7-2.5-1.7-1.7-3.6-3.7-6.3-3.8a4.5 4.5 0 00-2.4.5 3 3 0 00-1 .8l-.6 1a11.3 11.3 0 00-1.2 4l-.5 3.9v1l-.7 2.4h-.2l-3.3-2c-1.1-.6-2.1-1.4-3.1-2.1l-6.3-5.5c-.7-.6-1.8-.7-2.6 0-.6.7-.7 2 0 2.6 3.5 3.2 7 6.4 11 9l3.5 2c.6.2 1.3.3 2 .2.4 0 .8-.1 1.3-.4.3-.1.5-.4.8-.7a12.4 12.4 0 001.9-4l.6-3.2c.2-1.5.5-3 1-4.4l.4.3c1.3 1 2.5 2.4 3.7 3.6 1 1 2.2 2 3.5 2.5 1 .5 2.1.8 3.3.8 1.1 0 2.3-.4 3.2-1 .8-.4 1.4-1 2-1.8a18 18 0 002.9-4.7l1.6-4.1 2.8 4.4c.9 1.5 1.9 2.9 3 4.3 1 1.4 2.3 2.7 3.9 3.6a6.8 6.8 0 002.4.7l1.2-.2c.2 0 .4 0 .6-.2.4 0 .7-.2 1-.4.6-.3 1.1-.8 1.5-1.4.8-1 1.4-2 2-3.3l1.3-3.5c.7-2.4 1-5 1.3-7.4l2.4-19.2a2.2 2.2 0 00-1.6-2.1 2.2 2.2 0 00-1.7.2"/>
    <path d="M355.3 21c-.6.5-1 1.4-1 2.2.4 3.2.8 6.5 1 9.8l.7 9.7c.4 5.5 1 11 1.6 16.6l-.2 1.3c-.2 1.3 0 2.7 0 4a59.4 59.4 0 00.5 6c.3 1.7.4 3.3 1 4.8.3.8.7 1.5 1.5 2l.8.3h1.9a3.3 3.3 0 002.4-2.4c.3-1 .2-2.2.2-3.2l-.2-2.1a426.8 426.8 0 00-1.3-11.6c3.4-1.3 7-1.6 10.5-2.2.8-.2 1.4-.8 1.8-1.4a3 3 0 00.3-2.2 3 3 0 00-3.6-2c-2 .5-4 1-5.9 1.7l-3.7 1.4c-.7-5.5-1.2-11-1.6-16.5l-.5-6.2-.8-7.8-.1-.9-.8-1.4c-.6-.6-1.5-.9-2.3-.9-.8 0-1.6.3-2.2 1"/>
    <path d="M401.1 69.7h-.4.4m0-.2l-.2.1h.2m-19-.3h0m39-2.4h-.1.1m1.2 0h0m8.9-2.5l.1.1h-.1m-17.9-2h-.1M494.2 56.5a22 22 0 00-5.8 2c-.8.4-1.5 1-2.2 1.6-1 .7-1.7 1.6-2.5 2.5-.9.9-1.7 1.9-2.7 2.7l-.1.1-2-2.1c-.8-1-1.6-2-2.6-3l-.7-.5c-.3-.2-1-.4-1.3-.4l-.9.1-1.1.7c-.7.5-1.2 1.1-1.7 1.7a23.3 23.3 0 01-3 3.1h-.3-.4l-1-.6-2-2a17 17 0 00-2.3-2 4 4 0 00-3-.5c-1.2.3-2 1.6-2.4 2.7l-.7 2c-.5 1-1 1.9-1.7 2.8l-1.2 1.3c-.2 0-.3.2-.5.3h-1a8 8 0 01-.9-.6l-.7-.7a38.7 38.7 0 001.9-4 7 7 0 00.3-2.8c0-.7-.3-1.4-.7-2-.6-.5-1.2-.7-2-.7a4 4 0 00-2 .7c-.8.6-1.3 1.4-1.8 2.2a10.2 10.2 0 00-1.2 6.2l-.5.3-.6.2h-.5l-.5-.2-.7-.4a14 14 0 01-1.6-1.7l-2.2-3.1c-.8-1.2-1.7-2.2-2.9-3-1.7-1-4-.5-5.6.5-1.5 1-2.8 2.3-4 3.6-1 1-1.9 2-2.9 2.8-.8-1.4-1.5-3-2.1-4.5-.7-1.4-1.4-2.8-2.6-3.8a6 6 0 00-1.9-1.1l-1.8-.4a4 4 0 00-1.9.4c-.4 0-.7.3-1 .5l-1 .7c-.5.4-.9 1-1.3 1.5L407 61l-1.6 2.4c-1 1.6-2 3.4-3.2 5l-.8.8a7.7 7.7 0 01-.9.4l-.6-.3-.7-.8c-.8-1-1.4-2.3-2-3.5a66 66 0 01-1.8-5.3c-.3-.8-.7-1.7-1.4-2.3a2 2 0 00-2.3-.3c-.7.5-1.3 1.1-1.9 1.8-1 1.4-1.8 2.9-2.5 4.4a34.2 34.2 0 01-3.6 5.3l-.8.5a4 4 0 01-.4 0h-.2a11.2 11.2 0 01-3.6-1.4l-1.8-1.2a21 21 0 01-4-3.9l-3.9-4.8.2.3-.6-.8c-.4-.6-1-.9-1.8-.5-.5.4-.9 1.3-.4 1.8 1.7 2.3 3.5 4.6 5.5 6.8a35.3 35.3 0 008 6.7 6 6 0 002.5 1 6 6 0 002.6-.6c.6-.3 1.2-.6 1.6-1 .7-.6 1.2-1.4 1.8-2.1l1.2-2 1.6-3.5 1.5-3.1.7 2.3a137.3 137.3 0 002.4 7c.5 1 1.2 2 2 2.7a4.4 4.4 0 003.5 1.4c.6 0 1.1-.1 1.7-.3a6 6 0 002.1-1.1c1.4-1.1 2.5-2.7 3.5-4.1l3.1-4.1c.6-.7 1.2-1.5 1.9-2.1l.3.3c.8 1.2 1.4 2.7 2 4l1.2 2.4.7 1c.4.5.8 1 1.4 1.4 1.1.6 2.3.8 3.5.6 1.7-.3 3-1.6 4.1-2.6l1.7-1.7 3.2-3 .5.5 2.3 3.3 1 1.2a8 8 0 004.5 2.8c1 .3 2 .2 3.1 0a6.2 6.2 0 002.8-1.2l.6.6a7.3 7.3 0 005.4 2.2c2.2 0 4-1.6 5.5-3.2 1-1.2 1.7-2.5 2.3-4l.6.7c.5.5 1 .9 1.7 1.3l2 1c.7.3 1.5.4 2.2.4.7 0 1.4-.1 2-.4a7.3 7.3 0 003.3-2.6l1.2-1.7 1.2-2.1 1.3 2.4c1 1.7 1.8 3.4 3.4 4.5a4 4 0 002.5.7c1.1 0 2.1-.5 3-1.1 1.2-.7 2.2-1.9 3.1-2.9l3-3 1.6-.8a23 23 0 014.4-1.2c3.5-.4 7 0 10.4.3 6 .9 12 2 18 3.2 3 .6 5.8 1.2 8.8 1.6l5.9 1 3.5.5 10.5 1 9.1.8 17 1.3 2.3.1a4 4 0 002.9-1.1 4.1 4.1 0 000-5.8 4.2 4.2 0 00-3-1.2l-17.6-1-10.4-.7-9.4-.8-1.9-.2-7.9-1-4.1-.8-5.4-.9-7.9-1.2-5.6-.7a103.2 103.2 0 00-10.7-1c-2.2 0-4.5.3-6.7.7"/>
  </g>
</svg>
