<svg role="img" xmlns="http://www.w3.org/2000/svg" xmlns:xlink="http://www.w3.org/1999/xlink" x="0px" y="0px" width="100%" viewBox="0 0 210 210" xml:space="preserve" fill="none">
  <path fill="#FFFFFF" d="M206.398,30.286c-4.502-12.394-14.307-22.189-26.713-26.687C168.48,0,158.075,0,136.865,0h-63.63   c-21.11,0-31.615,0-42.92,3.498C17.909,7.996,8.104,17.792,3.602,30.186C0,41.58,0,52.075,0,73.165v63.57   c0,21.19,0,31.585,3.502,42.98c4.502,12.394,14.307,22.189,26.713,26.687C41.62,210,52.125,210,73.135,210h63.63   c21.11,0,31.615,0,42.92-3.598c12.406-4.498,22.211-14.293,26.713-26.687C210,168.32,210,157.825,210,136.735v-63.47   C210,52.175,210,41.68,206.398,30.286z M151.472,71.866l-12.106,9.895c-1.101,0.9-2.601,0.7-3.402-0.4   c-6.203-7.596-15.807-11.894-26.312-11.894c-11.706,0-19.009,5.098-19.009,12.294c-0.2,6.097,5.503,9.196,23.011,12.994   c22.111,4.698,32.215,13.893,32.215,29.386c0,19.391-15.808,33.684-40.519,35.283l-2.401,11.495   c-0.2,1.099-1.201,1.899-2.401,1.899H81.539c-1.601,0-2.701-1.499-2.401-2.999l3.001-12.794   c-12.206-3.498-22.111-10.295-27.813-18.591c-0.7-1.099-0.5-2.499,0.5-3.298l13.206-10.395c1.101-0.9,2.701-0.6,3.502,0.5   c7.003,9.795,17.808,15.593,30.815,15.593c11.706,0,20.51-5.697,20.51-13.893c0-6.297-4.402-9.196-19.309-12.294   c-25.412-5.497-35.517-14.793-35.517-30.286c0-17.991,15.107-31.485,37.918-33.284l2.501-11.894c0.2-1.099,1.201-1.899,2.401-1.899   h18.709c1.501,0,2.701,1.399,2.401,2.899l-2.901,13.294c9.805,2.999,17.808,8.396,22.811,15.093   C152.673,69.567,152.473,71.066,151.472,71.866z"></path>
</svg>
