<svg width="512" height="512" viewBox="0 0 512 512" fill="none" xmlns="http://www.w3.org/2000/svg">
<path d="M0 128C0 57.3076 57.3076 0 128 0H384C454.692 0 512 57.3076 512 128V384C512 454.692 454.692 512 384 512H128C57.3076 512 0 454.692 0 384V128Z" fill="#FA5D00"/>
<path d="M236.894 294.63V409H217.605V237.065C217.614 234.549 218.121 232.059 219.097 229.739C220.073 227.42 221.499 225.317 223.292 223.551C225.085 221.786 227.211 220.393 229.545 219.454C231.88 218.514 234.377 218.047 236.894 218.078H294.013V275.263C294.048 277.775 293.585 280.269 292.652 282.601C291.719 284.934 290.334 287.059 288.577 288.854C286.819 290.649 284.724 292.079 282.412 293.061C280.1 294.043 277.616 294.559 275.104 294.577L236.894 294.63Z" fill="#FFF8F1"/>
<path d="M408.998 103.002V389.685C408.981 394.798 406.944 399.697 403.331 403.315C399.719 406.932 394.823 408.976 389.71 409H370.801V121.937C370.775 119.445 371.246 116.974 372.186 114.666C373.127 112.359 374.518 110.262 376.279 108.499C378.04 106.736 380.135 105.341 382.441 104.397C384.747 103.454 387.218 102.979 389.71 103.002H408.998Z" fill="#FFF8F1"/>
<path d="M332.59 103.002H351.46V389.685C351.465 394.733 349.492 399.581 345.965 403.192C342.437 406.802 337.636 408.887 332.59 409H313.302V198.463C313.314 195.948 313.823 193.461 314.801 191.145C315.778 188.828 317.205 186.728 318.998 184.966C320.791 183.203 322.915 181.813 325.248 180.875C327.581 179.937 330.076 179.47 332.59 179.501V103.002Z" fill="#FFF8F1"/>
<path d="M179.408 409H160.538V121.937C160.512 119.449 160.982 116.98 161.92 114.675C162.858 112.37 164.246 110.276 166.003 108.513C167.759 106.75 169.849 105.355 172.151 104.409C174.453 103.463 176.92 102.984 179.408 103.002H198.696V313.186C198.679 318.299 196.642 323.197 193.03 326.815C189.417 330.433 184.521 332.476 179.408 332.5V409Z" fill="#FFF8F1"/>
<path d="M103 409V121.937C103.015 119.425 103.527 116.94 104.506 114.627C105.486 112.313 106.912 110.216 108.705 108.457C110.498 106.697 112.621 105.309 114.952 104.373C117.283 103.436 119.776 102.97 122.288 103.001H141.197V389.685C141.232 392.197 140.769 394.691 139.836 397.023C138.903 399.356 137.518 401.481 135.761 403.276C134.003 405.071 131.908 406.501 129.596 407.483C127.284 408.466 124.8 408.981 122.288 409H103Z" fill="#FFF8F1"/>
</svg>
