<svg width="744" height="744" viewBox="0 0 744 744" fill="none" xmlns="http://www.w3.org/2000/svg">
  <path fill-rule="evenodd" clip-rule="evenodd"
    d="M371.78 0C270.857 0.000168991 258.182 0.441416 218.53 2.24466C178.948 4.05581 151.93 10.3177 128.289 19.5058C103.835 28.995 83.091 41.6889 62.425 62.3475C41.7434 82.9988 29.0396 103.727 19.5122 128.155C10.2943 151.786 4.01991 178.792 2.23861 218.329C0.464882 257.959 0 270.63 0 371.531C0 472.433 0.449386 485.057 2.24617 524.687C4.06677 564.24 10.3332 591.238 19.5198 614.861C29.0241 639.297 41.7275 660.025 62.4015 680.676C83.0604 701.343 103.804 714.068 128.242 723.557C151.898 732.745 178.925 739.007 218.499 740.818C258.158 742.621 270.823 743.063 371.792 743.063C472.776 743.063 485.41 742.622 525.069 740.818C564.652 739.007 591.701 732.745 615.357 723.557C639.803 714.068 660.516 701.343 681.174 680.676C701.856 660.025 714.56 639.297 724.087 614.869C733.227 591.238 739.502 564.233 741.361 524.695C743.142 485.065 743.607 472.433 743.607 371.531C743.607 270.629 743.142 257.967 741.361 218.337C739.502 178.784 733.227 151.786 724.087 128.163C714.56 103.727 701.856 82.9984 681.174 62.3475C660.493 41.681 639.811 28.9871 615.334 19.5054C591.631 10.3177 564.597 4.05581 525.015 2.24466C485.363 0.441416 472.735 0.000168991 371.78 0ZM359.441 66.9496H359.446C363.42 66.9513 367.548 66.9532 371.838 66.9532C471.111 66.9532 482.877 67.3092 522.079 69.0894C558.331 70.746 578.005 76.7985 591.112 81.8839C608.463 88.6178 620.833 96.6679 633.839 109.671C646.852 122.675 654.908 135.06 661.662 152.397C666.751 165.478 672.816 185.139 674.466 221.363C676.248 260.529 676.635 272.294 676.635 371.446C676.635 470.598 676.248 482.364 674.466 521.53C672.808 557.754 666.751 577.414 661.662 590.495C654.923 607.833 646.852 620.179 633.839 633.174C620.826 646.178 608.47 654.228 591.112 660.962C578.021 666.071 558.331 672.108 522.079 673.764C482.885 675.545 471.111 675.932 371.838 675.932C272.558 675.932 260.792 675.545 221.597 673.764C185.346 672.093 165.671 666.04 152.557 660.954C135.206 654.22 122.812 646.17 109.799 633.167C96.7862 620.163 88.7305 607.81 81.9757 590.464C76.8866 577.383 70.8215 557.723 69.1718 521.499C67.3901 482.333 67.0337 470.568 67.0337 371.353C67.0337 272.139 67.3901 260.436 69.1718 221.27C70.8295 185.046 76.8866 165.386 81.9757 152.289C88.7146 134.951 96.7862 122.567 109.799 109.563C122.812 96.5594 135.206 88.5097 152.557 81.7603C165.664 76.6515 185.346 70.6144 221.597 68.9499C255.896 67.4018 269.189 66.9377 338.484 66.8598L338.484 66.9532C344.956 66.9431 351.918 66.9462 359.43 66.9496H359.436H359.441ZM525.689 173.211C525.689 148.59 545.674 128.643 570.306 128.643L570.306 128.628C594.938 128.628 614.923 148.597 614.923 173.211C614.923 197.825 594.938 217.795 570.306 217.795C545.674 217.795 525.689 197.825 525.689 173.211ZM371.835 180.734C266.39 180.736 180.9 266.165 180.9 371.531C180.9 476.899 266.392 562.289 371.838 562.289C477.284 562.289 562.746 476.899 562.746 371.531C562.746 266.165 477.279 180.736 371.835 180.734ZM371.835 180.734C371.836 180.734 371.837 180.734 371.838 180.734H371.831C371.832 180.734 371.833 180.734 371.835 180.734ZM495.774 371.531C495.774 303.131 440.282 247.688 371.838 247.688C303.387 247.688 247.903 303.131 247.903 371.531C247.903 439.924 303.387 495.375 371.838 495.375C440.282 495.375 495.774 439.924 495.774 371.531Z"
    fill="black" />
</svg>