<svg height="700pt" preserveAspectRatio="xMidYMid meet" viewBox="0 0 700 700" width="700pt" xmlns="http://www.w3.org/2000/svg"><g transform="matrix(.1 0 0 -.1 0 700)"><path d="m3260 6994c-19-2-84-9-145-15-60-6-119-13-131-15l-20-5 23-152c13-84 25-157 27-163 3-7 35-6 107 3 236 29 604 26 812-7 33-5 50-4 53 4 2 6 14 80 27 163l23 153-30 5c-128 21-214 26-446 30-146 2-281 1-300-1z"/><path d="m2512 6859c-277-82-598-221-789-342l-42-26 85-141 86-140 71 41c212 119 424 210 645 278 74 23 139 41 145 41 35 1 35 16-2 170-26 104-42 156-52 157-8 1-74-16-147-38z"/><path d="m4325 6888c-2-7-18-71-35-143-17-71-33-138-36-147-4-13 5-19 38-28 255-65 562-190 795-325l61-35 85 140 86 141-47 29c-134 85-437 225-632 292-88 30-287 88-302 88-5 0-10-6-13-12z"/><path d="m3320 6340c-586-38-1151-259-1610-628-122-98-324-300-422-422-231-287-417-642-522-1000-130-441-145-964-41-1420 53-230 108-383 221-620 48-100 84-188 84-205s-67-318-149-670-149-641-147-642c1-1 55 11 121 26 66 16 190 45 275 64 361 85 516 121 693 163 104 24 203 44 220 44 20 0 97-31 197-79 172-83 297-133 441-176 608-183 1288-153 1874 82 774 311 1385 959 1644 1744 214 650 191 1354-66 1979-95 232-260 510-421 710-98 122-300 324-422 422-352 283-793 491-1225 577-227 46-519 65-745 51z"/><path d="m1323 6241c-137-109-291-252-397-368-93-103-246-290-246-302 0-8 247-191 258-191 4 0 46 48 92 107 110 140 335 365 478 478 61 49 112 93 112 97 0 11-183 258-191 258-4 0-52-36-106-79z"/><path d="m5472 6195c-51-69-92-129-92-133s48-46 107-92c138-109 374-345 483-483 46-59 88-107 92-107 12 0 258 183 258 192 0 13-153 198-259 314-54 60-148 153-208 206-114 102-270 228-282 228-4 0-48-56-99-125z"/><path d="m483 5277c-47-74-151-279-203-400-83-194-191-529-176-545 3-3 75-22 158-43 153-37 167-38 168-2 0 29 76 260 127 388 55 139 115 265 192 402l41 71-140 86-141 85z"/><path d="m6350 5234c-74-46-134-87-133-91 1-5 33-66 72-138 107-196 192-405 257-630 19-65 36-120 37-121s72 14 157 35l155 37-3 32c-3 44-84 301-133 425-71 179-242 517-267 530-4 2-68-34-142-79z"/><path d="m36 4011c-42-213-42-809 0-1022l5-25 152 23c84 13 157 25 163 27 8 3 9 21 3 58-15 99-29 308-29 428s14 329 29 428c6 37 5 55-3 58-6 2-79 14-163 27l-152 23z"/><path d="m6795 4010c-88-14-159-30-158-35 37-224 37-726 0-950-1-5 70-21 158-35 142-23 161-24 166-10 4 8 13 69 20 135 26 226 13 823-20 905-5 14-24 13-166-10z"/><path d="m258 2711c-81-21-150-40-154-43-8-8 36-167 85-310 42-121 115-296 161-388l28-56-39-164c-23-98-34-167-29-170 14-9 310-74 313-69 2 2 26 102 54 223l51 218-73 152c-101 210-175 408-225 604-6 23-14 42-18 41s-73-18-154-38z"/><path d="m6570 2708c-64-251-187-553-319-785l-41-71 140-86 141-85 27 42c51 80 189 363 240 492 57 146 131 381 135 428l2 31-130 31c-71 17-142 34-157 38-25 7-28 4-38-35z"/><path d="m5970 1513c-109-138-345-374-483-483-59-46-107-88-107-92 0-10 179-252 189-256 26-9 366 292 510 452 104 115 241 283 241 295 0 9-247 191-258 191-4 0-46-48-92-107z"/><path d="m162 988c-52-223-73-332-72-378 1-281 239-519 520-520 46-1 155 20 378 72 258 60 312 75 312 89 0 19-66 298-71 304-2 2-125-26-274-62-311-74-379-81-438-44-21 13-49 40-62 60-45 67-43 91 30 406 38 160 68 296 69 304 1 10-41 23-139 47-77 18-149 33-160 34-19 0-27-27-93-312z"/><path d="m5040 729c-192-108-437-210-663-275-66-19-122-36-123-37-4-4 71-306 78-312 15-15 335 86 532 169 112 47 339 162 413 209l42 26-81 133c-44 73-83 136-87 140-3 3-53-20-111-53z"/><path d="m1728 676c-164-38-218-55-218-66 0-19 66-300 72-305 2-3 78 13 168 34l165 39 55-28c209-106 678-269 700-243 4 4 22 71 40 148s35 145 37 152c3 7-13 16-39 23-197 51-392 123-607 226-85 41-154 73-155 73-1-1-99-24-218-53z"/><path d="m3014 356c-2-6-14-79-27-163l-23-152 25-5c214-42 801-42 1022 0l25 5-23 152c-13 84-25 157-27 163-3 8-20 9-53 4-208-33-576-36-812-7-72 9-104 10-107 3z"/></g></svg>