<svg width="226" height="34" viewBox="0 0 226 34" fill="none" xmlns="http://www.w3.org/2000/svg">
<g clip-path="url(#clip0_4480_10464)">
<path d="M27.4884 17.6452C22.1911 21.6148 11.0259 23.4958 0 22.6966C2.54306 24.3613 6.15996 25.814 10.7698 26.8428C24.1411 29.8278 40.4643 28.141 47.2309 23.0719C47.3207 23.0013 47.3881 22.9306 47.4735 22.8644C38.6267 19.5041 35.8095 14.2673 41.4483 10.0371C47.0961 5.80259 59.4115 3.93921 71.1069 5.17558C68.6177 3.70077 65.2165 2.40701 61.02 1.4709C47.6487 -1.50962 31.3255 0.181551 24.559 5.24623C24.3029 5.44051 24.0917 5.63921 23.876 5.8335C30.7953 9.17168 32.588 13.8213 27.4884 17.6452Z" fill="#0089CF"/>
<path d="M71.1925 5.14866C71.1519 5.14866 71.1069 5.13965 71.0708 5.13965C71.1114 5.14415 71.1564 5.14866 71.197 5.15317L71.1925 5.14866Z" fill="#0089CF"/>
<path d="M67.6249 25.5976C67.6608 26.9266 67.9753 27.8937 68.7032 28.5295C69.4805 29.1565 70.5274 29.4965 72.0685 29.4965C74.5082 29.4965 77.1411 28.9931 77.1411 27.0591C77.1411 26.622 76.9434 26.2599 76.6424 25.9596C75.0474 24.423 61.703 23.2926 57.9513 20.4534C56.4462 19.323 55.9834 17.6186 55.9834 16.2586C55.9834 10.9864 61.5862 8.61963 72.7649 8.61963C84.6445 8.61963 88.2389 11.4544 88.3962 16.422H76.8671C76.7862 15.0885 76.2919 14.2495 75.4338 13.7505C74.625 13.2472 73.4658 13.0838 71.9921 13.0838C69.5164 13.0838 68.2045 13.883 68.2045 15.1194C68.2045 15.4814 68.3572 15.9495 68.7032 16.2144C70.5274 17.7157 83.4404 18.7843 87.1561 21.65C88.2389 22.4801 89.3577 23.7827 89.3577 26.1186C89.3577 30.8918 84.4872 33.9563 71.763 33.9563C56.5989 33.9563 55.8621 30.0529 55.6329 25.5887H67.6249V25.5976Z" fill="#0089CF"/>
<path d="M104.302 15.9585C113.665 15.9585 119.74 18.1575 119.74 24.9619C119.74 31.7663 113.665 33.9653 104.302 33.9653C94.9382 33.9653 88.8726 31.7619 88.8726 24.9619C88.8726 18.1619 94.9427 15.9585 104.302 15.9585ZM104.302 29.6954C107.051 29.6954 107.977 27.5273 107.977 24.9619C107.977 22.3964 107.051 20.2284 104.302 20.2284C101.552 20.2284 100.626 22.3964 100.626 24.9619C100.626 27.5273 101.556 29.6954 104.302 29.6954Z" fill="#0089CF"/>
<path d="M122.08 21.257H118.832V16.5942H122.08V15.7949C122.08 11.291 124.048 8.62402 132.603 8.62402C134.688 8.62402 137.164 8.7874 139.329 9.12298V13.49C138.637 13.3222 137.981 13.2869 137.006 13.2869C134.764 13.2869 133.448 14.0905 133.448 15.7949V16.5942H138.983V21.257H133.448V33.3336H122.08V21.257Z" fill="#0089CF"/>
<path d="M151.595 10.6201V16.59H157.315V21.2528H151.595V26.1232C151.595 28.1941 152.795 29.0949 155.388 29.0949C155.927 29.0949 156.664 29.0287 157.432 28.8609V33.3295C156.043 33.5944 152.445 33.9653 149.704 33.9653C142.506 33.9653 140.34 32.3315 140.34 27.0947V21.2573H137.123V16.5944H140.223V13.6625L151.595 10.6245V10.6201Z" fill="#0089CF"/>
<path d="M167.703 26.2949C167.703 29.1253 169.015 30.4234 171.612 30.4234C173.813 30.4234 174.703 29.5624 175.013 28.4982H186.156C185.805 31.2977 181.824 33.9692 171.8 33.9692C162.711 33.9692 156.564 31.3949 156.564 25.0629C156.564 18.731 162.9 15.9624 171.486 15.9624C178.913 15.9624 186.425 17.998 186.425 25.3985V26.2993H167.703V26.2949ZM175.282 23.0936C175.282 20.9255 174.083 19.4949 171.486 19.4949C169.055 19.4949 167.698 20.8946 167.698 23.0936H175.278H175.282Z" fill="#0089CF"/>
<path d="M192.424 24.4582L208.109 16.5941H222.54L208.239 24.0034L225.829 33.3336H209.192L200.34 28.8341L197.438 30.3221L192.424 24.4626V24.4582ZM186.735 9.25537H198.112V33.3291H186.735V9.25537Z" fill="#0089CF"/>
<path d="M223.053 14.3023C221.583 14.3023 220.536 13.2205 220.536 11.7898C220.536 10.2797 221.7 9.27734 223.053 9.27734C224.405 9.27734 225.555 10.2797 225.555 11.7898C225.555 13.2999 224.392 14.3023 223.053 14.3023ZM223.053 9.71449C221.947 9.71449 221.085 10.5667 221.085 11.7898C221.085 12.9334 221.835 13.8651 223.053 13.8651C224.144 13.8651 225.007 13.0173 225.007 11.7898C225.007 10.5623 224.144 9.71449 223.053 9.71449ZM222.545 13.2293H222.082V10.4475H223.156C223.839 10.4475 224.189 10.6815 224.189 11.2467C224.189 11.7501 223.875 11.9576 223.452 12.0062L224.243 13.2293H223.718L222.985 12.0415H222.549V13.2293H222.545ZM223.066 11.6485C223.417 11.6485 223.722 11.6132 223.722 11.2114C223.722 10.8758 223.385 10.836 223.107 10.836H222.545V11.6485H223.066Z" fill="#0089CF"/>
</g>
<defs>
<clipPath id="clip0_4480_10464">
<rect width="226" height="34" fill="white"/>
</clipPath>
</defs>
</svg>
