<svg xmlns="http://www.w3.org/2000/svg" xmlns:xlink="http://www.w3.org/1999/xlink" version="1.1" id="Layer_1" x="0px" y="0px" width="100px" height="100px" viewBox="0 0 100 100" enable-background="new 0 0 100 100" xml:space="preserve">
<g>
	<path fill="#000000" d="M64.306,35.277c-1.216,0.097-2.411,0.212-3.597,0.337c-0.002,6.025-0.014,11.35-0.047,13.411l-0.016,0.832   l-0.769,0.315c-1.45,0.594-3.295,0.683-4.264,0.683s-2.813-0.089-4.263-0.684l-0.778-0.317l-0.007-0.841   c-0.011-1.748-0.023-6.46-0.034-11.997c-9.312,1.627-17.466,4.061-23.957,7.094c-1.978,0.925-3.806,1.9-5.458,2.932v36.722   l59.692,14.56v-37.27L64.306,35.277z M75.351,91.395L26.575,79.488V68.503l48.775,12.118V91.395z M75.351,74.998L26.603,62.879   l-0.027-10.987l48.775,12.137V74.998z"/>
	<path fill="#000000" d="M59.447,35.753c0.002-9.471-0.026-20.757-0.048-23.905c-0.21-0.425-0.59-0.555-1.018-0.555   c-0.662,0-1.435,0.306-1.874,0.306c-0.215,0-0.35-0.073-0.353-0.292c3.102-2.42,1.44-9.662-1.082-11.357   c0.778,4.937-3.644,8.567-0.179,11.739c0.058,0.053,0.117,0.105,0.179,0.158c-0.062-0.053-0.121-0.105-0.179-0.158   c-0.362-0.265-0.903-0.396-1.442-0.396c-0.639,0-1.278,0.185-1.623,0.555c-0.057,3.333-0.057,15.32-0.037,24.953   c2.089-0.345,4.231-0.651,6.428-0.912C58.625,35.841,59.038,35.799,59.447,35.753z"/>
	<path fill="#000000" d="M55.614,49.593c1.413,0,2.828-0.196,3.785-0.588c0.035-2.031,0.048-7.282,0.048-13.251   c-0.409,0.045-0.822,0.087-1.228,0.136c-2.196,0.261-4.339,0.567-6.428,0.912c0.009,5.553,0.023,10.326,0.037,12.204   C52.785,49.396,54.201,49.593,55.614,49.593z"/>
</g>
</svg>