<svg xmlns="http://www.w3.org/2000/svg" xmlns:xlink="http://www.w3.org/1999/xlink" version="1.1" x="0px" y="0px" viewBox="0 0 100 100" style="enable-background:new 0 0 100 100;" xml:space="preserve"><style type="text/css">
	.st0{fill:none;stroke:#000000;stroke-width:2;stroke-miterlimit:10;}
	.st1{fill:none;stroke:#000000;stroke-width:2;stroke-linecap:round;stroke-linejoin:round;stroke-miterlimit:10;}
	.st2{stroke:#000000;stroke-miterlimit:10;}
</style><path d="M44.5,55.2c0-8.1-5.4-14.9-12.7-17.2v-3c0-1.1-0.8-2.1-1.9-2.3c0,0,0,0,0,0c0-1.5-1-2.8-2.4-3.2V9.5c0-0.6-0.4-1-1-1  s-1,0.4-1,1v19.9c-1.4,0.4-2.4,1.7-2.4,3.2c0,0,0,0,0,0c-1.1,0.2-1.9,1.2-1.9,2.3v3c-4.7,1.4-8.5,4.7-10.7,9c0,0,0,0.1-0.1,0.1  c-1.2,2.4-1.9,5.2-1.9,8.1c0,9.9,8.1,18,18,18S44.5,65.1,44.5,55.2z M25.1,32.6c0-0.7,0.6-1.4,1.4-1.4s1.4,0.6,1.4,1.4H25.1z   M23.2,35c0-0.2,0.2-0.4,0.4-0.4h5.9c0.2,0,0.4,0.2,0.4,0.4v2.5c-1.1-0.2-2.2-0.3-3.3-0.3s-2.2,0.1-3.3,0.3V35z M26.5,39.2  c5.6,0,10.5,2.9,13.4,7.3H13.1C15.9,42.1,20.9,39.2,26.5,39.2z M12,48.5h29c1,2.1,1.5,4.3,1.5,6.7c0,2.6-0.6,5.1-1.8,7.3H12.2  c-1.1-2.2-1.8-4.6-1.8-7.3C10.5,52.8,11,50.5,12,48.5z M13.4,64.4h26.1c-2.9,4.1-7.7,6.7-13,6.7S16.3,68.5,13.4,64.4z"></path><path d="M74.6,45.4C74.6,45.4,74.6,45.4,74.6,45.4l0-4.1c0-1.4-1.1-2.5-2.4-2.7c0-0.1,0-0.2,0-0.2c0-1.9-1.3-3.4-3-3.8V9.5  c0-0.6-0.4-1-1-1s-1,0.4-1,1v25.1c-1.7,0.4-3,2-3,3.8c0,0.1,0,0.2,0,0.2c-1.3,0.2-2.4,1.3-2.4,2.7v4c0,0,0,0,0,0.1  c-5.7,1.7-10.4,5.6-13.1,10.7c0,0,0,0,0,0c-1.7,3.1-2.6,6.7-2.6,10.5c0,12.2,9.9,22.2,22.2,22.2s22.2-9.9,22.2-22.2  C90.4,56.6,83.7,48.1,74.6,45.4z M68.3,36.4c1.1,0,2,0.9,2,2c0,0.1,0,0.1,0,0.2h-3.9c0-0.1,0-0.1,0-0.2  C66.3,37.3,67.2,36.4,68.3,36.4z M63.9,41.3c0-0.4,0.3-0.7,0.7-0.7h7.3c0.4,0,0.7,0.3,0.7,0.7v3.6c-1.4-0.3-2.9-0.4-4.4-0.4  c-1.5,0-3,0.2-4.4,0.4V41.3z M68.3,46.5c7,0,13.2,3.6,16.8,9H51.4C55.1,50.1,61.2,46.5,68.3,46.5z M68.3,86.8  c-7.3,0-13.7-3.9-17.2-9.7h34.4C81.9,82.9,75.5,86.8,68.3,86.8z M86.5,75.1H50c-1.2-2.6-1.9-5.4-1.9-8.5c0-3.3,0.8-6.4,2.2-9.1h35.9  c1.4,2.7,2.2,5.8,2.2,9.1C88.4,69.7,87.7,72.5,86.5,75.1z"></path><path d="M53.7,62.3c-2.2,0-4,1.8-4,4c0,2.2,1.8,4,4,4c2.2,0,4-1.8,4-4C57.7,64.1,55.9,62.3,53.7,62.3z M53.7,68.3c-1.1,0-2-0.9-2-2  c0-1.1,0.9-2,2-2c1.1,0,2,0.9,2,2C55.7,67.4,54.8,68.3,53.7,68.3z"></path><path d="M63.4,62.3c-2.2,0-4,1.8-4,4c0,2.2,1.8,4,4,4c2.2,0,4-1.8,4-4C67.4,64.1,65.6,62.3,63.4,62.3z M63.4,68.3c-1.1,0-2-0.9-2-2  c0-1.1,0.9-2,2-2c1.1,0,2,0.9,2,2C65.4,67.4,64.5,68.3,63.4,68.3z"></path><path d="M73.1,62.3c-2.2,0-4,1.8-4,4c0,2.2,1.8,4,4,4s4-1.8,4-4C77.1,64.1,75.3,62.3,73.1,62.3z M73.1,68.3c-1.1,0-2-0.9-2-2  c0-1.1,0.9-2,2-2s2,0.9,2,2C75.1,67.4,74.2,68.3,73.1,68.3z"></path><path d="M82.8,62.3c-2.2,0-4,1.8-4,4c0,2.2,1.8,4,4,4c2.2,0,4-1.8,4-4C86.8,64.1,85,62.3,82.8,62.3z M82.8,68.3c-1.1,0-2-0.9-2-2  c0-1.1,0.9-2,2-2c1.1,0,2,0.9,2,2C84.8,67.4,83.9,68.3,82.8,68.3z"></path><path d="M15.1,58.6c1.7,0,3.1-1.4,3.1-3.1s-1.4-3.1-3.1-3.1c-1.7,0-3.1,1.4-3.1,3.1S13.4,58.6,15.1,58.6z M15.1,54.3  c0.6,0,1.1,0.5,1.1,1.1s-0.5,1.1-1.1,1.1S14,56.1,14,55.4S14.5,54.3,15.1,54.3z"></path><path d="M22.7,58.6c1.7,0,3.1-1.4,3.1-3.1s-1.4-3.1-3.1-3.1c-1.7,0-3.1,1.4-3.1,3.1S21,58.6,22.7,58.6z M22.7,54.3  c0.6,0,1.1,0.5,1.1,1.1s-0.5,1.1-1.1,1.1s-1.1-0.5-1.1-1.1S22.1,54.3,22.7,54.3z"></path><path d="M30.3,58.6c1.7,0,3.1-1.4,3.1-3.1s-1.4-3.1-3.1-3.1s-3.1,1.4-3.1,3.1S28.6,58.6,30.3,58.6z M30.3,54.3  c0.6,0,1.1,0.5,1.1,1.1s-0.5,1.1-1.1,1.1s-1.1-0.5-1.1-1.1S29.7,54.3,30.3,54.3z"></path><path d="M38,58.6c1.7,0,3.1-1.4,3.1-3.1s-1.4-3.1-3.1-3.1s-3.1,1.4-3.1,3.1S36.2,58.6,38,58.6z M38,54.3c0.6,0,1.1,0.5,1.1,1.1  s-0.5,1.1-1.1,1.1s-1.1-0.5-1.1-1.1S37.4,54.3,38,54.3z"></path></svg>