<svg xmlns="http://www.w3.org/2000/svg" xmlns:xlink="http://www.w3.org/1999/xlink" version="1.1" id="Your_Icon" x="0px" y="0px" width="100px" height="100px" viewBox="0 0 100 100" enable-background="new 0 0 100 100" xml:space="preserve">
<path d="M18.111,42.106h63.573c2.039,0,3.691-1.653,3.691-3.691c0-2.039-1.652-3.691-3.691-3.691H18.111  c-2.039,0-3.691,1.652-3.691,3.691C14.419,40.453,16.072,42.106,18.111,42.106z"/>
<path d="M77.457,80.523H22.338c-4.343,0-7.875,3.533-7.875,7.876v3.725c0,4.343,3.532,7.876,7.875,7.876h55.119  c4.344,0,7.877-3.533,7.877-7.876v-3.725C85.334,84.057,81.801,80.523,77.457,80.523z M77.951,92.124  c0,0.263-0.23,0.493-0.494,0.493H22.338c-0.263,0-0.493-0.23-0.493-0.493v-3.725c0-0.263,0.23-0.494,0.493-0.494h55.119  c0.264,0,0.494,0.231,0.494,0.494V92.124z"/>
<path d="M18.154,30.267h63.489c2.039,0,3.691-1.652,3.691-3.691C85.334,14.452,79.186,0,49.898,0  C20.611,0,14.463,14.452,14.463,26.576C14.463,28.615,16.115,30.267,18.154,30.267z M49.898,7.382  c22.6,0,26.992,9.375,27.848,15.502H22.051C22.905,16.757,27.298,7.382,49.898,7.382z"/>
<path d="M81.889,46.537c-5.195,0-7.941,2.041-10.148,3.681c-1.803,1.341-2.994,2.225-5.746,2.225s-3.943-0.886-5.746-2.225  c-2.207-1.64-4.954-3.681-10.149-3.681c-5.193,0-7.94,2.041-10.148,3.682c-1.802,1.34-2.993,2.224-5.744,2.224  c-2.751,0-3.942-0.884-5.745-2.224c-2.206-1.64-4.953-3.682-10.148-3.682c-2.039,0-3.691,1.652-3.691,3.691  c0,2.039,1.652,3.691,3.691,3.691c2.752,0,3.942,0.885,5.745,2.224c2.208,1.642,4.953,3.683,10.148,3.683  c5.195,0,7.941-2.042,10.148-3.683c1.802-1.339,2.993-2.224,5.744-2.224c2.753,0,3.944,0.885,5.746,2.224  c2.208,1.642,4.954,3.683,10.149,3.683s7.941-2.041,10.148-3.681c1.803-1.341,2.994-2.226,5.746-2.226  c2.039,0,3.691-1.652,3.691-3.691C85.58,48.189,83.928,46.537,81.889,46.537z"/>
<path d="M81.148,62.896H18.869c-2.301,0-4.185,1.883-4.185,4.186v5.285c0,2.302,1.883,4.185,4.185,4.185h62.279  c2.303,0,4.186-1.883,4.186-4.185v-5.285C85.334,64.779,83.451,62.896,81.148,62.896z"/>
<circle cx="39.54" cy="13" r="2.46"/>
<circle cx="46.539" cy="18.54" r="2.46"/>
<circle cx="52.539" cy="11.539" r="2.461"/>
<circle cx="60.539" cy="17.46" r="2.46"/>
</svg>