<svg xmlns:svg="http://www.w3.org/2000/svg" xmlns="http://www.w3.org/2000/svg" version="1.1" x="0px" y="0px" width="100" height="100" viewBox="0 0 100 100" enable-background="new 0 0 100 52" xml:space="preserve" style="fill:#AAAAAA">
  <g transform="matrix(0.6136733,-0.6136733,0.6136733,0.6136733,4.0598725,65.6509)">
    <path d="M 74.458,0.955 H 59.321 c -1.307,0 -2.591,0.1 -3.845,0.293 -0.273,0.042 -0.541,0.101 -0.811,0.151 4.646,2.666 8.469,6.605 10.987,11.343 h 1.238 8.346 c 7.322,0 13.257,5.937 13.257,13.259 0,7.321 -5.936,13.258 -13.257,13.258 H 65.72 63.762 61.857 61.851 58.68 c -3.305,0 -6.324,-1.212 -8.646,-3.212 0,0 -0.003,0.003 -0.003,0.003 0,-0.002 -10e-4,-0.002 -0.002,-0.003 -0.494,-0.414 -0.886,-0.802 -1.206,-1.148 -0.7,-0.764 -1.011,-1.303 -1.011,-1.303 0.001,-0.002 0.002,-0.002 0.002,-0.003 -10e-4,-0.001 -0.002,-0.002 -0.002,-0.003 -1.505,-2.15 -2.389,-4.766 -2.389,-7.589 0,-2.746 0.834,-5.296 2.263,-7.413 0.041,-0.06 0.086,-0.117 0.127,-0.176 -1.736,-1.473 -3.978,-2.367 -6.429,-2.367 h -5.041 c -1.325,3.052 -2.067,6.416 -2.067,9.956 0,3.538 0.737,6.903 2.061,9.955 0.244,0.561 0.509,1.111 0.792,1.651 0.237,0.45 0.482,0.896 0.746,1.332 0.02,0.033 0.036,0.059 0.054,0.088 0.047,0.079 0.099,0.152 0.147,0.231 2.792,4.463 6.948,7.98 11.888,9.973 0.608,0.245 1.226,0.472 1.856,0.669 0.034,0.011 0.068,0.022 0.103,0.031 0.105,0.034 0.212,0.061 0.318,0.091 0.27,0.08 0.541,0.161 0.815,0.232 0.004,0 0.006,0.002 0.01,0.003 2,0.513 4.096,0.787 6.254,0.787 H 74.457 C 88.289,51.044 99.501,39.831 99.501,26 99.502,12.169 88.29,0.955 74.458,0.955 z"/>
    <path d="m 25.542,51.045 h 15.137 c 1.308,0 2.592,-0.101 3.846,-0.294 0.273,-0.042 0.542,-0.1 0.811,-0.151 C 40.69,47.935 36.866,43.996 34.349,39.258 H 33.11 24.764 c -7.322,0 -13.257,-5.936 -13.257,-13.259 0,-7.322 5.935,-13.257 13.257,-13.257 h 9.516 1.957 1.905 0.007 3.17 c 3.304,0 6.323,1.212 8.645,3.212 l 0.002,-0.003 c 10e-4,10e-4 10e-4,0.002 0.002,0.003 0.495,0.413 0.887,0.801 1.206,1.148 0.701,0.762 1.011,1.302 1.011,1.302 0,0.001 -0.001,0.002 -0.002,0.003 10e-4,0 0.002,0.001 0.003,0.003 1.505,2.15 2.39,4.766 2.39,7.588 0,2.746 -0.835,5.297 -2.264,7.412 -0.041,0.062 -0.085,0.118 -0.127,0.176 1.736,1.474 3.979,2.369 6.429,2.369 h 5.042 c 1.324,-3.053 2.065,-6.417 2.065,-9.957 0,-3.539 -0.737,-6.903 -2.061,-9.955 C 63.416,15.482 63.151,14.932 62.868,14.392 62.631,13.941 62.386,13.494 62.122,13.06 62.102,13.027 62.086,13 62.069,12.971 62.021,12.893 61.97,12.818 61.922,12.741 59.13,8.278 54.973,4.76 50.034,2.768 49.426,2.523 48.808,2.297 48.178,2.098 48.144,2.087 48.11,2.077 48.075,2.066 47.97,2.034 47.863,2.007 47.757,1.977 47.487,1.896 47.216,1.815 46.941,1.745 46.937,1.744 46.935,1.744 46.932,1.743 44.932,1.228 42.837,0.955 40.677,0.955 H 25.542 c -13.832,0 -25.044,11.212 -25.044,25.044 0,13.833 11.212,25.046 25.044,25.046 z"/>
  </g>
</svg>
